<svg width="278" height="50" viewBox="0 0 278 50" fill="none" xmlns="http://www.w3.org/2000/svg">
<g clip-path="url(#clip0_60_15221)">
<path fill-rule="evenodd" clip-rule="evenodd" d="M18.1566 22.9886C18.345 22.9757 18.5081 23.1181 18.5209 23.3065C18.5767 24.1245 18.8 27.0848 20.6011 30.3077C22.3968 33.5209 25.7734 37.0182 32.1811 38.9012C32.3623 38.9542 32.466 39.1446 32.4128 39.3256C32.3595 39.5069 32.1695 39.6106 31.9883 39.5572C25.4029 37.6222 21.8841 34.0052 20.0041 30.6413C18.1295 27.2869 17.8969 24.2066 17.8387 23.353C17.8258 23.1646 17.9682 23.0014 18.1566 22.9886Z" fill="url(#paint0_linear_60_15221)"/>
<path fill-rule="evenodd" clip-rule="evenodd" d="M9.00455 17.9729C8.43805 17.9729 7.97879 18.4322 7.97879 18.9987C7.97879 19.5652 8.43805 20.0245 9.00455 20.0245C9.57109 20.0245 10.0303 19.5652 10.0303 18.9987C10.0303 18.4322 9.57109 17.9729 9.00455 17.9729ZM7.29492 18.9987C7.29492 18.0545 8.06035 17.2891 9.00455 17.2891C9.94875 17.2891 10.7142 18.0545 10.7142 18.9987C10.7142 19.9429 9.94875 20.7083 9.00455 20.7083C8.06035 20.7083 7.29492 19.9429 7.29492 18.9987Z" fill="url(#paint1_linear_60_15221)"/>
<path fill-rule="evenodd" clip-rule="evenodd" d="M4.33071 9.76687C3.76421 9.76687 3.30494 10.2261 3.30494 10.7926C3.30494 11.3592 3.76421 11.8184 4.33071 11.8184C4.89724 11.8184 5.35647 11.3592 5.35647 10.7926C5.35647 10.2261 4.89724 9.76687 4.33071 9.76687ZM2.62109 10.7926C2.62109 9.84844 3.38651 9.08301 4.33071 9.08301C5.27491 9.08301 6.04034 9.84844 6.04034 10.7926C6.04034 11.7368 5.27491 12.5023 4.33071 12.5023C3.38651 12.5023 2.62109 11.7368 2.62109 10.7926Z" fill="url(#paint2_linear_60_15221)"/>
<path fill-rule="evenodd" clip-rule="evenodd" d="M6.72522 3.61208C6.15873 3.61208 5.69946 4.07131 5.69946 4.63784C5.69946 5.20438 6.15873 5.66361 6.72522 5.66361C7.29176 5.66361 7.75099 5.20438 7.75099 4.63784C7.75099 4.07131 7.29176 3.61208 6.72522 3.61208ZM5.01562 4.63784C5.01562 3.69364 5.78103 2.92822 6.72522 2.92822C7.66943 2.92822 8.43486 3.69364 8.43486 4.63784C8.43486 5.58204 7.66943 6.34748 6.72522 6.34748C5.78103 6.34748 5.01562 5.58204 5.01562 4.63784Z" fill="url(#paint3_linear_60_15221)"/>
<path fill-rule="evenodd" clip-rule="evenodd" d="M1.70962 24.9255C1.1431 24.9255 0.68385 25.3848 0.68385 25.9513C0.68385 26.5178 1.1431 26.9771 1.70962 26.9771C2.27614 26.9771 2.73539 26.5178 2.73539 25.9513C2.73539 25.3848 2.27614 24.9255 1.70962 24.9255ZM0 25.9513C0 25.0071 0.765423 24.2417 1.70962 24.2417C2.65382 24.2417 3.41923 25.0071 3.41923 25.9513C3.41923 26.8955 2.65382 27.6609 1.70962 27.6609C0.765423 27.6609 0 26.8955 0 25.9513Z" fill="url(#paint4_linear_60_15221)"/>
<path fill-rule="evenodd" clip-rule="evenodd" d="M33.6218 20.2527C33.0552 20.2527 32.5959 20.7119 32.5959 21.2784C32.5959 21.845 33.0552 22.3042 33.6218 22.3042C34.1882 22.3042 34.6475 21.845 34.6475 21.2784C34.6475 20.7119 34.1882 20.2527 33.6218 20.2527ZM31.9121 21.2784C31.9121 20.3342 32.6775 19.5688 33.6218 19.5688C34.5658 19.5688 35.3315 20.3342 35.3315 21.2784C35.3315 22.2226 34.5658 22.9881 33.6218 22.9881C32.6775 22.9881 31.9121 22.2226 31.9121 21.2784Z" fill="url(#paint5_linear_60_15221)"/>
<path fill-rule="evenodd" clip-rule="evenodd" d="M28.3795 19.6829C27.813 19.6829 27.3538 20.1421 27.3538 20.7086C27.3538 21.2752 27.813 21.7344 28.3795 21.7344C28.9461 21.7344 29.4053 21.2752 29.4053 20.7086C29.4053 20.1421 28.9461 19.6829 28.3795 19.6829ZM26.6699 20.7086C26.6699 19.7644 27.4353 18.999 28.3795 18.999C29.3237 18.999 30.0892 19.7644 30.0892 20.7086C30.0892 21.6528 29.3237 22.4183 28.3795 22.4183C27.4353 22.4183 26.6699 21.6528 26.6699 20.7086Z" fill="url(#paint6_linear_60_15221)"/>
<path fill-rule="evenodd" clip-rule="evenodd" d="M30.6589 31.9919C30.0924 31.9919 29.6331 32.4512 29.6331 33.0177C29.6331 33.5844 30.0924 34.0434 30.6589 34.0434C31.2254 34.0434 31.6846 33.5844 31.6846 33.0177C31.6846 32.4512 31.2254 31.9919 30.6589 31.9919ZM28.9492 33.0177C28.9492 32.0735 29.7147 31.3081 30.6589 31.3081C31.6031 31.3081 32.3685 32.0735 32.3685 33.0177C32.3685 33.962 31.6031 34.7274 30.6589 34.7274C29.7147 34.7274 28.9492 33.962 28.9492 33.0177Z" fill="url(#paint7_linear_60_15221)"/>
<path fill-rule="evenodd" clip-rule="evenodd" d="M33.4227 38.7919C32.856 38.7919 32.3968 39.2512 32.3968 39.8176C32.3968 40.3842 32.856 40.8432 33.4227 40.8432C33.989 40.8432 34.4483 40.3842 34.4483 39.8176C34.4483 39.2512 33.989 38.7919 33.4227 38.7919ZM31.7129 39.8176C31.7129 38.8736 32.4783 38.1079 33.4227 38.1079C34.3667 38.1079 35.132 38.8736 35.132 39.8176C35.132 40.7619 34.3667 41.5272 33.4227 41.5272C32.4783 41.5272 31.7129 40.7619 31.7129 39.8176Z" fill="url(#paint8_linear_60_15221)"/>
<path fill-rule="evenodd" clip-rule="evenodd" d="M18.1217 20.9363C17.5552 20.9363 17.0959 21.3955 17.0959 21.9621C17.0959 22.5286 17.5552 22.9878 18.1217 22.9878C18.6882 22.9878 19.1475 22.5286 19.1475 21.9621C19.1475 21.3955 18.6882 20.9363 18.1217 20.9363ZM16.4121 21.9621C16.4121 21.0179 17.1775 20.2524 18.1217 20.2524C19.0659 20.2524 19.8313 21.0179 19.8313 21.9621C19.8313 22.9063 19.0659 23.6717 18.1217 23.6717C17.1775 23.6717 16.4121 22.9063 16.4121 21.9621Z" fill="url(#paint9_linear_60_15221)"/>
<path fill-rule="evenodd" clip-rule="evenodd" d="M28.6305 21.7927C28.8184 21.7741 28.9859 21.9113 29.0045 22.0992C29.202 24.0921 31.0332 28.5574 36.8422 30.0652C37.0252 30.1126 37.1349 30.2992 37.0876 30.482C37.0399 30.6648 36.8532 30.7745 36.6706 30.7271C30.5351 29.1347 28.5444 24.3909 28.324 22.1667C28.3054 21.9788 28.4426 21.8113 28.6305 21.7927Z" fill="url(#paint10_linear_60_15221)"/>
<path fill-rule="evenodd" clip-rule="evenodd" d="M26.3288 10.1087C25.7622 10.1087 25.303 10.5679 25.303 11.1344C25.303 11.7009 25.7622 12.1602 26.3288 12.1602C26.8953 12.1602 27.3545 11.7009 27.3545 11.1344C27.3545 10.5679 26.8953 10.1087 26.3288 10.1087ZM24.6191 11.1344C24.6191 10.1902 25.3846 9.4248 26.3288 9.4248C27.273 9.4248 28.0384 10.1902 28.0384 11.1344C28.0384 12.0786 27.273 12.844 26.3288 12.844C25.3846 12.844 24.6191 12.0786 24.6191 11.1344Z" fill="url(#paint11_linear_60_15221)"/>
<path fill-rule="evenodd" clip-rule="evenodd" d="M27.1851 11.7892C27.3272 11.6648 27.5433 11.6792 27.6676 11.8214C28.981 13.3224 31.603 17.8928 31.8383 23.146C31.8583 23.5929 31.9595 23.9992 32.1916 24.3139C32.9964 25.4054 34.636 26.9988 36.958 27.6155C37.1404 27.664 37.249 27.8513 37.2007 28.0338C37.152 28.2163 36.965 28.3249 36.7823 28.2765C34.2627 27.6072 32.5043 25.8903 31.6412 24.7198C31.2985 24.255 31.1785 23.6972 31.1552 23.1766C30.9277 18.099 28.3787 13.6725 27.153 12.2717C27.0286 12.1296 27.043 11.9136 27.1851 11.7892Z" fill="url(#paint12_linear_60_15221)"/>
<path fill-rule="evenodd" clip-rule="evenodd" d="M33.9822 22.2609C34.1635 22.2079 34.3535 22.3118 34.4065 22.493C34.5089 22.8427 34.7549 23.3795 35.1485 23.8221C35.5392 24.2609 36.0515 24.5836 36.6999 24.5836C36.8885 24.5836 37.0415 24.7367 37.0415 24.9256C37.0415 25.1144 36.8885 25.2675 36.6999 25.2675C35.7979 25.2675 35.1135 24.8114 34.6379 24.2767C34.1655 23.7458 33.8759 23.1143 33.7502 22.6851C33.6972 22.5039 33.8009 22.314 33.9822 22.2609Z" fill="url(#paint13_linear_60_15221)"/>
<path fill-rule="evenodd" clip-rule="evenodd" d="M14.36 34.2716C13.7935 34.2716 13.3342 34.7309 13.3342 35.2976C13.3342 35.8639 13.7935 36.3232 14.36 36.3232C14.9265 36.3232 15.3858 35.8639 15.3858 35.2976C15.3858 34.7309 14.9265 34.2716 14.36 34.2716ZM12.6504 35.2976C12.6504 34.3532 13.4158 33.5879 14.36 33.5879C15.3042 33.5879 16.0696 34.3532 16.0696 35.2976C16.0696 36.2416 15.3042 37.0069 14.36 37.0069C13.4158 37.0069 12.6504 36.2416 12.6504 35.2976Z" fill="url(#paint14_linear_60_15221)"/>
<path fill-rule="evenodd" clip-rule="evenodd" d="M5.81312 43.0473C6.37965 43.0473 6.83892 42.5883 6.83892 42.0217C6.83892 41.455 6.37965 40.996 5.81312 40.996C5.24662 40.996 4.78735 41.455 4.78735 42.0217C4.78735 42.5883 5.24662 43.0473 5.81312 43.0473ZM7.52275 42.0217C7.52275 42.966 6.75732 43.7313 5.81312 43.7313C4.86892 43.7313 4.10352 42.966 4.10352 42.0217C4.10352 41.0773 4.86892 40.312 5.81312 40.312C6.75732 40.312 7.52275 41.0773 7.52275 42.0217Z" fill="url(#paint15_linear_60_15221)"/>
<path fill-rule="evenodd" clip-rule="evenodd" d="M10.8268 48.5185C11.3934 48.5185 11.8526 48.0592 11.8526 47.4925C11.8526 46.9262 11.3934 46.4669 10.8268 46.4669C10.2603 46.4669 9.80105 46.9262 9.80105 47.4925C9.80105 48.0592 10.2603 48.5185 10.8268 48.5185ZM12.5365 47.4925C12.5365 48.4369 11.771 49.2022 10.8268 49.2022C9.88262 49.2022 9.11719 48.4369 9.11719 47.4925C9.11719 46.5485 9.88262 45.7832 10.8268 45.7832C11.771 45.7832 12.5365 46.5485 12.5365 47.4925Z" fill="url(#paint16_linear_60_15221)"/>
<path fill-rule="evenodd" clip-rule="evenodd" d="M8.77539 42.3637V20.4805H9.45922V42.3637H8.77539Z" fill="url(#paint17_linear_60_15221)"/>
<path fill-rule="evenodd" clip-rule="evenodd" d="M7.29492 41.9077H9.46045V42.5917H7.29492V41.9077Z" fill="url(#paint18_linear_60_15221)"/>
<path fill-rule="evenodd" clip-rule="evenodd" d="M12.3086 47.2646H18.1213V47.9483H12.3086V47.2646Z" fill="url(#paint19_linear_60_15221)"/>
<path fill-rule="evenodd" clip-rule="evenodd" d="M3.07812 25.7231H4.21788V26.407H3.07812V25.7231Z" fill="url(#paint20_linear_60_15221)"/>
<path fill-rule="evenodd" clip-rule="evenodd" d="M1.9375 21.7344H5.92663V22.4182H1.9375V21.7344Z" fill="url(#paint21_linear_60_15221)"/>
<path fill-rule="evenodd" clip-rule="evenodd" d="M6.04102 18.771H7.52268V19.4548H6.04102V18.771Z" fill="url(#paint22_linear_60_15221)"/>
<path fill-rule="evenodd" clip-rule="evenodd" d="M10.4863 18.771H11.968V19.4548H10.4863V18.771Z" fill="url(#paint23_linear_60_15221)"/>
<path fill-rule="evenodd" clip-rule="evenodd" d="M3.41992 13.5278H18.4646V14.2117H3.41992V13.5278Z" fill="url(#paint24_linear_60_15221)"/>
<path fill-rule="evenodd" clip-rule="evenodd" d="M12.3086 42.3637H18.4632V41.6797H12.3086V42.3637Z" fill="url(#paint25_linear_60_15221)"/>
<path fill-rule="evenodd" clip-rule="evenodd" d="M5.92578 10.6787H12.0804V11.3625H5.92578V10.6787Z" fill="url(#paint26_linear_60_15221)"/>
<path fill-rule="evenodd" clip-rule="evenodd" d="M6.49609 8.39893H9.11749V9.08276H6.49609V8.39893Z" fill="url(#paint27_linear_60_15221)"/>
<path fill-rule="evenodd" clip-rule="evenodd" d="M3.82774 13.6965C3.92347 13.8592 3.86914 14.0688 3.70637 14.1645C3.5253 14.271 2.96315 14.8975 2.96315 16.3773C2.96315 16.5661 2.81006 16.7192 2.62122 16.7192C2.43238 16.7192 2.2793 16.5661 2.2793 16.3773C2.2793 14.7569 2.89486 13.8485 3.35967 13.5751C3.52244 13.4794 3.732 13.5337 3.82774 13.6965Z" fill="url(#paint28_linear_60_15221)"/>
<path fill-rule="evenodd" clip-rule="evenodd" d="M12.7184 42.1948C12.8141 42.0321 12.7598 41.8224 12.597 41.7268C12.5262 41.6851 12.3359 41.4944 12.1609 41.0861C11.9928 40.6934 11.8538 40.1318 11.8538 39.4001C11.8538 39.2111 11.7007 39.0581 11.5118 39.0581C11.323 39.0581 11.1699 39.2111 11.1699 39.4001C11.1699 40.2184 11.3254 40.8724 11.5324 41.3554C11.7326 41.8228 11.9981 42.1678 12.2503 42.3161C12.4131 42.4118 12.6226 42.3574 12.7184 42.1948Z" fill="url(#paint29_linear_60_15221)"/>
<path fill-rule="evenodd" clip-rule="evenodd" d="M2.2793 16.0356H18.4637V16.7195H2.2793V16.0356Z" fill="url(#paint30_linear_60_15221)"/>
<path fill-rule="evenodd" clip-rule="evenodd" d="M11.1699 39.7421H18.4643V39.0581H11.1699V39.7421Z" fill="url(#paint31_linear_60_15221)"/>
<path fill-rule="evenodd" clip-rule="evenodd" d="M18.1394 39.1869C18.2574 39.0395 18.4725 39.0155 18.62 39.1335C19.0256 39.4579 20.6305 40.5299 22.7643 41.7462C24.8934 42.9599 27.5236 44.3022 29.9756 45.1759C30.1535 45.2395 30.2463 45.4349 30.1829 45.6129C30.1196 45.7909 29.924 45.8835 29.7461 45.8202C27.2402 44.9272 24.5706 43.5629 22.4256 42.3402C20.2854 41.1202 18.642 40.0269 18.1928 39.6675C18.0453 39.5495 18.0214 39.3342 18.1394 39.1869Z" fill="url(#paint32_linear_60_15221)"/>
<path fill-rule="evenodd" clip-rule="evenodd" d="M18.196 41.808C18.314 41.6606 18.5292 41.6366 18.6766 41.7546C19.5259 42.434 23.1916 45.3083 27.6346 46.827C27.8133 46.888 27.9086 47.0823 27.8476 47.261C27.7865 47.4396 27.5921 47.535 27.4134 47.474C22.8524 45.9153 19.1098 42.977 18.2494 42.2886C18.102 42.1706 18.0781 41.9556 18.196 41.808Z" fill="url(#paint33_linear_60_15221)"/>
<path fill-rule="evenodd" clip-rule="evenodd" d="M20.6091 17.1081C19.8425 16.7746 19.0359 16.6925 18.5396 16.7186C18.351 16.7285 18.1901 16.5837 18.1802 16.3951C18.1702 16.2066 18.3151 16.0456 18.5036 16.0357C19.09 16.0048 20.0045 16.0994 20.8819 16.481C21.7656 16.8654 22.6315 17.5514 23.0594 18.7091C23.3014 19.3639 23.4527 20.2997 23.6213 21.3419C23.6316 21.4053 23.6419 21.469 23.6523 21.5332C23.8366 22.6696 24.053 23.9549 24.4278 25.2582C25.1767 27.8616 26.5467 30.4974 29.511 32.0894C29.6773 32.1787 29.7398 32.386 29.6504 32.5524C29.5611 32.7187 29.3538 32.7812 29.1874 32.6918C25.9971 30.9785 24.5462 28.1436 23.7706 25.4472C23.3833 24.1005 23.1616 22.7787 22.9773 21.6427C22.9693 21.5937 22.9614 21.5451 22.9536 21.4969C22.7777 20.4107 22.636 19.5361 22.4179 18.9461C22.0708 18.0067 21.3696 17.4389 20.6091 17.1081Z" fill="url(#paint34_linear_60_15221)"/>
<path fill-rule="evenodd" clip-rule="evenodd" d="M14.1328 18.6567H18.4638V19.3406H14.1328V18.6567Z" fill="url(#paint35_linear_60_15221)"/>
<path fill-rule="evenodd" clip-rule="evenodd" d="M14.1328 21.6201H16.8682V22.304H14.1328V21.6201Z" fill="url(#paint36_linear_60_15221)"/>
<path fill-rule="evenodd" clip-rule="evenodd" d="M18.0674 18.9545C18.0918 18.7672 18.2634 18.6352 18.4507 18.6597C19.5003 18.7966 21.7108 20.1036 21.9956 23.7591C22.1661 25.9466 22.4761 28.6588 24.1948 31.1644C25.9074 33.6613 29.056 36.0029 35.0085 37.3572C35.1929 37.3989 35.3082 37.5823 35.2662 37.7663C35.2242 37.9506 35.0412 38.0659 34.8569 38.0239C28.7852 36.6426 25.4657 34.2262 23.6309 31.5512C21.8021 28.8853 21.4853 26.0127 21.3138 23.8122C21.0516 20.4469 19.0602 19.4288 18.3622 19.3378C18.175 19.3133 18.043 19.1417 18.0674 18.9545Z" fill="url(#paint37_linear_60_15221)"/>
<path fill-rule="evenodd" clip-rule="evenodd" d="M17.8945 20.5946V16.0356H18.5784V20.5946H17.8945Z" fill="url(#paint38_linear_60_15221)"/>
<path fill-rule="evenodd" clip-rule="evenodd" d="M18.1231 13.8333C18.1433 13.6455 18.3118 13.5096 18.4996 13.5298C19.6898 13.6577 21.5682 14.1504 23.1182 15.2181C24.6806 16.2945 25.9313 17.9759 25.7566 20.4475C25.3733 25.8683 29.9861 30.9963 36.5398 32.3407C36.7248 32.3786 36.8438 32.5593 36.8062 32.7443C36.7682 32.9293 36.5872 33.0485 36.4025 33.0106C29.6209 31.6195 24.6599 26.2619 25.0744 20.3992C25.2277 18.2322 24.1514 16.7603 22.7302 15.7813C21.2966 14.7936 19.5348 14.3288 18.4265 14.2098C18.2388 14.1896 18.1029 14.021 18.1231 13.8333Z" fill="url(#paint39_linear_60_15221)"/>
<path fill-rule="evenodd" clip-rule="evenodd" d="M11.9668 35.0693H12.9926V35.753H11.9668V35.0693Z" fill="url(#paint40_linear_60_15221)"/>
<path fill-rule="evenodd" clip-rule="evenodd" d="M14.4746 31.6499H18.0078V32.3338H14.4746V31.6499Z" fill="url(#paint41_linear_60_15221)"/>
<path fill-rule="evenodd" clip-rule="evenodd" d="M15.5 35.1831H18.0074V35.8668H15.5V35.1831Z" fill="url(#paint42_linear_60_15221)"/>
<path fill-rule="evenodd" clip-rule="evenodd" d="M17.8251 31.703C17.9846 31.602 18.1958 31.6494 18.2969 31.8089C18.3265 31.8557 18.3674 31.9314 18.4127 32.0153C18.4432 32.0719 18.4758 32.1323 18.5084 32.19C18.6004 32.3535 18.7271 32.5638 18.909 32.8194C19.2727 33.3305 19.8631 34.0306 20.8482 34.898C22.8207 36.6346 26.3735 39.04 32.8504 41.9376C33.0227 42.0146 33.1 42.217 33.0229 42.3893C32.9457 42.5616 32.7435 42.639 32.5711 42.5616C26.0548 39.6466 22.4367 37.2076 20.3963 35.4113C19.3751 34.512 18.7485 33.7733 18.3518 33.2159C18.1535 32.9372 18.0141 32.7059 17.9125 32.5256C17.8572 32.4274 17.8194 32.3565 17.7904 32.3023C17.7603 32.2459 17.7398 32.2075 17.7191 32.1748C17.6181 32.0153 17.6655 31.804 17.8251 31.703Z" fill="url(#paint43_linear_60_15221)"/>
<path fill-rule="evenodd" clip-rule="evenodd" d="M17.8251 35.2362C17.9846 35.1352 18.1958 35.1825 18.2969 35.3422C18.3221 35.3819 18.4264 35.5109 18.6303 35.7282C18.8261 35.9369 19.0973 36.2095 19.4379 36.5295C20.1191 37.1695 21.0738 37.9942 22.2509 38.8692C24.6075 40.6209 27.8426 42.5629 31.5516 43.6305C31.7331 43.6829 31.8378 43.8722 31.7856 44.0539C31.7334 44.2352 31.5439 44.3399 31.3624 44.2875C27.5491 43.1899 24.2401 41.1999 21.843 39.4182C20.6433 38.5265 19.6687 37.6845 18.9697 37.0279C18.6203 36.6995 18.3387 36.4169 18.1317 36.1962C17.9327 35.9842 17.7841 35.8105 17.7191 35.7079C17.6181 35.5485 17.6655 35.3372 17.8251 35.2362Z" fill="url(#paint44_linear_60_15221)"/>
<path fill-rule="evenodd" clip-rule="evenodd" d="M17.9383 47.3178C18.0979 47.2168 18.3091 47.2641 18.4101 47.4234C18.55 47.6444 18.9391 47.9958 19.4894 48.3711C20.0258 48.7374 20.6695 49.0954 21.2711 49.3418C21.4458 49.4131 21.5296 49.6128 21.4581 49.7874C21.3866 49.9624 21.1869 50.0461 21.0121 49.9744C20.36 49.7078 19.674 49.3251 19.1039 48.9361C18.5477 48.5564 18.0535 48.1384 17.8324 47.7894C17.7314 47.6301 17.7788 47.4188 17.9383 47.3178Z" fill="url(#paint45_linear_60_15221)"/>
<path fill-rule="evenodd" clip-rule="evenodd" d="M6.04129 18.771V40.5402H5.35742V18.771H6.04129Z" fill="url(#paint46_linear_60_15221)"/>
<path fill-rule="evenodd" clip-rule="evenodd" d="M4.21704 25.7231V40.5398H3.5332V25.7231H4.21704Z" fill="url(#paint47_linear_60_15221)"/>
<path fill-rule="evenodd" clip-rule="evenodd" d="M3.62455 40.2504C3.75305 40.112 3.96942 40.104 4.10778 40.2324L4.90562 40.9734C5.04398 41.1017 5.05202 41.318 4.92352 41.4567C4.79502 41.595 4.57868 41.603 4.44028 41.4744L3.64245 40.7337C3.50408 40.605 3.49608 40.3887 3.62455 40.2504Z" fill="url(#paint48_linear_60_15221)"/>
<path fill-rule="evenodd" clip-rule="evenodd" d="M1.93775 21.7344V24.8117H1.25391V21.7344H1.93775Z" fill="url(#paint49_linear_60_15221)"/>
<path fill-rule="evenodd" clip-rule="evenodd" d="M6.9534 5.77783V9.0831H6.26953V5.77783H6.9534Z" fill="url(#paint50_linear_60_15221)"/>
<path fill-rule="evenodd" clip-rule="evenodd" d="M12.5374 4.32763V35.7528H11.8535V3.81007L12.1014 3.73917C15.7727 2.68883 21.4096 2.31033 26.388 4.61673C31.3954 6.93657 35.6735 11.9436 36.6411 21.5287C36.6602 21.7166 36.5235 21.8842 36.3355 21.9032C36.1475 21.9222 35.9798 21.7852 35.9608 21.5974C35.0138 12.217 30.8579 7.44123 26.1005 5.23723C21.4237 3.07055 16.1051 3.36143 12.5374 4.32763Z" fill="url(#paint51_linear_60_15221)"/>
<path fill-rule="evenodd" clip-rule="evenodd" d="M14.7034 6.61358V34.1574H14.0195V6.08445L14.274 6.01711C17.0936 5.27105 21.4422 5.08468 25.3383 6.90848C29.2596 8.74408 32.672 12.5931 33.6203 19.8091L33.665 20.1481L32.9868 20.2372L32.9422 19.8982C32.0213 12.8902 28.7377 9.25488 25.0484 7.52781C21.4482 5.84255 17.414 5.95281 14.7034 6.61358Z" fill="url(#paint52_linear_60_15221)"/>
<path fill-rule="evenodd" clip-rule="evenodd" d="M16.8691 11.6346V8.16113L17.2209 8.1713C18.2223 8.20017 19.8237 8.324 21.3855 8.60243C22.1667 8.7417 22.9443 8.9207 23.6351 9.1484C24.3215 9.3746 24.9442 9.65587 25.3992 10.0098L25.6691 10.2197L25.2493 10.7595L24.9794 10.5496C24.6138 10.2652 24.0758 10.0137 23.4211 9.79787C22.7708 9.58357 22.0269 9.4114 21.2655 9.27567C19.9145 9.03483 18.5287 8.91227 17.553 8.86803V10.8719C19.0905 10.7588 21.288 11.0109 23.3493 12.1047C25.6026 13.3004 27.6765 15.4944 28.5428 19.2641L28.6194 19.5973L27.953 19.7505L27.8764 19.4173C27.0559 15.8469 25.1122 13.8144 23.0287 12.7088C20.9314 11.5958 18.6757 11.4145 17.2524 11.5879L16.8691 11.6346Z" fill="url(#paint53_linear_60_15221)"/>
<path fill-rule="evenodd" clip-rule="evenodd" d="M8.66211 1.80298L8.87468 1.7161C11.1755 0.77563 15.1095 -0.191517 19.3567 0.0327612C23.6091 0.257311 28.2011 1.67875 31.7655 5.54597C31.8935 5.68483 31.8846 5.90117 31.7458 6.02913C31.6069 6.15713 31.3906 6.1483 31.2626 6.00943C27.8518 2.30876 23.4492 0.93367 19.3207 0.715657C15.316 0.50419 11.5931 1.38383 9.34598 2.26407V17.5171H8.66211V1.80298Z" fill="url(#paint54_linear_60_15221)"/>
<path fill-rule="evenodd" clip-rule="evenodd" d="M5.95983 43.1655C6.11507 43.0578 6.32807 43.0965 6.43557 43.2518L7.12143 44.2425C7.27043 44.4578 7.5156 44.5861 7.7774 44.5861H18.2001C18.3774 44.5861 18.5723 44.6188 18.7551 44.7181C18.9716 44.8355 19.3016 45.0345 19.7207 45.2871C20.9301 46.0165 22.8816 47.1928 24.9878 48.1501C25.1597 48.2281 25.2357 48.4308 25.1576 48.6028C25.0794 48.7748 24.8767 48.8508 24.7048 48.7728C22.5539 47.7951 20.5104 46.5628 19.3104 45.8395C18.9175 45.6025 18.6151 45.4201 18.4289 45.3191C18.3715 45.2878 18.2961 45.2701 18.2001 45.2701H7.7774C7.2912 45.2701 6.83593 45.0315 6.55917 44.6318L5.87333 43.6411C5.76583 43.4858 5.80457 43.2728 5.95983 43.1655Z" fill="url(#paint55_linear_60_15221)"/>
<path fill-rule="evenodd" clip-rule="evenodd" d="M31.577 33.5031C31.6865 33.3491 31.9 33.3132 32.0539 33.4228C32.1044 33.4588 32.1524 33.4928 32.1981 33.5255C32.6077 33.8185 32.842 33.9858 33.2279 34.1525C33.6677 34.3425 34.3063 34.5315 35.5857 34.8511C35.769 34.8971 35.8803 35.0828 35.8347 35.2658C35.7887 35.4491 35.603 35.5605 35.42 35.5148C34.1463 35.1965 33.4553 34.9958 32.9566 34.7802C32.5007 34.5832 32.2082 34.3738 31.8045 34.0848C31.7571 34.0511 31.7082 34.0161 31.6574 33.9798C31.5035 33.8705 31.4676 33.6568 31.577 33.5031Z" fill="url(#paint56_linear_60_15221)"/>
<path d="M48.7969 12.6426H57.8422C59.1222 12.6426 60.1462 12.671 60.9142 12.7279C61.7105 12.7848 62.5495 12.9128 63.4315 13.1119C64.3415 13.311 65.0669 13.6097 65.6075 14.0079C66.1762 14.4061 66.6599 14.9466 67.0582 15.6292C67.4279 16.2835 67.6129 17.1084 67.6129 18.1039V23.8639C67.6129 26.1679 66.7169 27.8319 64.9249 28.8559C63.1612 29.8515 60.5442 30.3492 57.0742 30.3492H52.9355V40.3332H48.7969V12.6426ZM57.6289 27.7466C59.4209 27.7466 60.8572 27.4195 61.9382 26.7652C63.0189 26.111 63.5595 25.0728 63.5595 23.6506V18.6159C63.5595 17.8479 63.3602 17.2221 62.9622 16.7386C62.5639 16.2266 61.9949 15.871 61.2555 15.6719C60.5442 15.5012 59.9469 15.3875 59.4635 15.3306C58.9799 15.2737 58.3399 15.2452 57.5435 15.2452H52.8929V27.7466H57.6289Z" fill="#021B41"/>
<path d="M72.875 19.6825H76.5017V23.0532C76.5017 22.399 76.786 21.7874 77.355 21.2185C77.9237 20.6212 78.649 20.1519 79.531 19.8105C80.4127 19.4408 81.2803 19.2559 82.1337 19.2559H84.011V22.5412H81.8777C80.057 22.5412 78.7343 22.783 77.9097 23.2665C77.113 23.7217 76.715 24.5608 76.715 25.7839V40.3332H72.875V19.6825Z" fill="#021B41"/>
<path d="M96.5791 40.7599C94.7585 40.7599 93.3931 40.6889 92.4831 40.5465C91.5728 40.4329 90.6625 40.1625 89.7525 39.7359C88.8138 39.3092 88.1311 38.6265 87.7045 37.6879C87.2778 36.7209 87.0645 35.4265 87.0645 33.8052V26.6372C87.0645 25.3572 87.2208 24.2337 87.5338 23.2665C87.8464 22.2994 88.2591 21.5457 88.7711 21.0052C89.1978 20.5217 89.8378 20.1519 90.6911 19.8959C91.5728 19.6114 92.4688 19.4265 93.3791 19.3412C94.4031 19.2843 95.4698 19.2559 96.5791 19.2559C98.0581 19.2559 99.1674 19.2985 99.9071 19.3839C100.675 19.4408 101.486 19.583 102.339 19.8105C103.221 20.0665 103.903 20.4505 104.387 20.9625C104.87 21.4745 105.283 22.2141 105.624 23.1812C105.937 24.1768 106.094 25.3288 106.094 26.6372V33.8052C106.094 36.2229 105.539 37.9865 104.43 39.0959C103.974 39.5509 103.32 39.9065 102.467 40.1625C101.614 40.4185 100.732 40.5892 99.8218 40.6745C98.7408 40.7315 97.6598 40.7599 96.5791 40.7599ZM96.5791 38.2425C97.7738 38.2425 98.6411 38.2142 99.1818 38.1572C99.7221 38.1002 100.248 37.9439 100.76 37.6879C101.272 37.4602 101.628 37.0905 101.827 36.5785C102.054 36.0382 102.168 35.2985 102.168 34.3599V25.9972C102.168 24.7172 102.012 23.7928 101.699 23.2239C101.386 22.6265 100.846 22.2425 100.078 22.0719C99.3381 21.8728 98.1718 21.7732 96.5791 21.7732C94.9861 21.7732 93.8058 21.8728 93.0378 22.0719C92.2981 22.2425 91.7718 22.6265 91.4591 23.2239C91.1461 23.7928 90.9898 24.7172 90.9898 25.9972V34.3599C90.9898 35.2985 91.0891 36.0382 91.2885 36.5785C91.5158 37.0905 91.8858 37.4602 92.3978 37.6879C92.9098 37.9439 93.4358 38.1002 93.9764 38.1572C94.5168 38.2142 95.3845 38.2425 96.5791 38.2425Z" fill="#021B41"/>
<path d="M121.298 40.7601C119.762 40.7601 118.525 40.6748 117.586 40.5041C116.676 40.3618 115.765 40.0775 114.855 39.6508C113.006 38.7691 112.082 36.7495 112.082 33.5921V10.4668H115.922V19.0855C115.893 19.825 115.879 20.6499 115.879 21.5601C116.021 20.9059 116.619 20.3513 117.671 19.8961C118.752 19.4695 120.317 19.2561 122.365 19.2561C128.053 19.2561 130.898 21.2046 130.898 25.1015V33.5921C130.898 34.8151 130.713 35.8818 130.343 36.7921C130.002 37.7025 129.547 38.4135 128.978 38.9255C128.466 39.4091 127.755 39.7931 126.845 40.0775C125.963 40.3618 125.081 40.5468 124.199 40.6321C123.403 40.7175 122.436 40.7601 121.298 40.7601ZM121.383 38.2428C122.862 38.2428 123.986 38.1431 124.754 37.9441C125.55 37.7165 126.119 37.3185 126.461 36.7495C126.802 36.1805 126.973 35.3131 126.973 34.1468V26.0401C126.973 24.8739 126.802 24.0064 126.461 23.4375C126.119 22.8401 125.55 22.4561 124.754 22.2855C123.986 22.0864 122.848 21.9868 121.341 21.9868C119.947 21.9868 118.866 22.1006 118.098 22.3281C117.33 22.5557 116.775 22.9681 116.434 23.5655C116.093 24.1344 115.922 24.9593 115.922 26.0401V34.1468C115.922 35.3131 116.078 36.1805 116.391 36.7495C116.733 37.3185 117.287 37.7165 118.055 37.9441C118.823 38.1431 119.933 38.2428 121.383 38.2428Z" fill="#021B41"/>
<path d="M145.495 40.7599C139.181 40.7599 136.023 38.6549 136.023 34.4452V26.2959C136.023 23.7928 136.734 22.0008 138.157 20.9199C139.607 19.8105 141.94 19.2559 145.154 19.2559C148.197 19.2559 150.388 19.7821 151.725 20.8345C153.09 21.887 153.773 23.7074 153.773 26.2959V30.8612H139.906V33.9759C139.906 35.3982 140.404 36.4222 141.399 37.0479C142.395 37.6735 143.931 37.9865 146.007 37.9865C147.97 37.9865 150.288 37.6452 152.962 36.9625V39.9065C150.345 40.4755 147.856 40.7599 145.495 40.7599ZM149.933 28.3439V25.1012C149.933 23.8497 149.549 22.9963 148.781 22.5412C148.041 22.0577 146.761 21.8159 144.941 21.8159C143.177 21.8159 141.897 22.0577 141.101 22.5412C140.304 22.9963 139.906 23.8497 139.906 25.1012V28.3439H149.933Z" fill="#021B41"/>
<path d="M159.881 12.6426H170.889C178.654 12.6426 182.537 15.2879 182.537 20.5786V32.8239C182.537 37.8302 178.668 40.3332 170.932 40.3332H159.881V12.6426ZM170.633 37.5172C175.924 37.5172 178.569 35.9242 178.569 32.7386V20.5359C178.569 19.5119 178.356 18.6444 177.929 17.9332C177.502 17.2221 176.905 16.6959 176.137 16.3546C175.369 16.0417 174.572 15.8284 173.748 15.7146C172.923 15.5724 171.956 15.5012 170.846 15.5012H164.02V37.5172H170.633Z" fill="#021B41"/>
<path d="M188.582 12.2158H192.422V16.2265H188.582V12.2158ZM188.582 19.6825H192.422V40.3332H188.582V19.6825Z" fill="#021B41"/>
<path d="M206.89 49.7199C204.074 49.7199 201.699 49.5635 199.765 49.2505V46.5199C203.178 46.9182 205.667 47.1172 207.232 47.1172C209.194 47.1172 210.616 46.8042 211.498 46.1785C212.408 45.5529 212.864 44.5145 212.864 43.0639V38.1145C212.807 39.0249 212.181 39.6932 210.986 40.1199C209.82 40.5465 208.341 40.7599 206.549 40.7599C204.416 40.7599 202.752 40.5609 201.557 40.1625C200.391 39.7642 199.552 39.1102 199.04 38.1999C198.556 37.2895 198.314 36.0522 198.314 34.4879V26.0825C198.314 23.6363 198.968 21.887 200.277 20.8345C201.614 19.7821 203.79 19.2559 206.805 19.2559C210.389 19.2559 212.494 20.0665 213.12 21.6879V19.6825H216.704V42.2959C216.704 44.2015 216.348 45.6949 215.637 46.7759C214.926 47.8569 213.859 48.6105 212.437 49.0372C211.015 49.4922 209.166 49.7199 206.89 49.7199ZM207.36 38.1999C209.379 38.1999 210.801 37.9582 211.626 37.4745C212.451 36.9909 212.864 36.0809 212.864 34.7439V25.3999C212.864 24.4612 212.707 23.7501 212.394 23.2665C212.11 22.783 211.569 22.4417 210.773 22.2425C209.976 22.015 208.81 21.9012 207.274 21.9012C205.824 21.9012 204.728 22.0008 203.989 22.1999C203.278 22.399 202.78 22.7545 202.496 23.2665C202.24 23.7501 202.112 24.4612 202.112 25.3999V34.7439C202.112 35.7109 202.254 36.4362 202.538 36.9199C202.823 37.4035 203.335 37.7449 204.074 37.9439C204.814 38.1145 205.909 38.1999 207.36 38.1999Z" fill="#021B41"/>
<path d="M223.375 12.2158H227.215V16.2265H223.375V12.2158ZM223.375 19.6825H227.215V40.3332H223.375V19.6825Z" fill="#021B41"/>
<path d="M242.535 40.76C240.772 40.76 239.392 40.575 238.397 40.2054C237.401 39.807 236.676 39.153 236.221 38.2427C235.794 37.304 235.581 35.9957 235.581 34.3174V22.2H230.973V19.6827H235.581V13.2827H239.463V19.6827H246.845V22.2H239.463V34.5307C239.463 35.5547 239.577 36.3227 239.805 36.8347C240.061 37.3467 240.487 37.7164 241.085 37.944C241.71 38.143 242.606 38.2427 243.773 38.2427C244.142 38.2427 245.166 38.129 246.845 37.9014V40.4187C245.394 40.6464 243.957 40.76 242.535 40.76Z" fill="#021B41"/>
<path d="M257.398 40.7599C255.435 40.7599 253.913 40.5749 252.832 40.2052C251.78 39.8355 251.012 39.1812 250.528 38.2425C250.073 37.3039 249.846 35.9529 249.846 34.1892C249.846 32.6248 250.059 31.4159 250.486 30.5625C250.941 29.6808 251.694 29.055 252.747 28.6852C253.828 28.3154 255.35 28.1305 257.312 28.1305H263.499V24.8452C263.499 24.0772 263.342 23.4941 263.03 23.0959C262.745 22.6692 262.247 22.3705 261.536 22.1999C260.854 22.0292 259.844 21.9439 258.507 21.9439C256.374 21.9439 254.013 22.1145 251.424 22.4559V19.6399C254.24 19.3839 256.786 19.2559 259.062 19.2559C261.451 19.2559 263.214 19.4408 264.352 19.8105C265.49 20.1519 266.272 20.7634 266.699 21.6452C267.126 22.527 267.339 23.8923 267.339 25.7412V40.3332H263.627V38.3705C263.314 39.9635 261.238 40.7599 257.398 40.7599ZM258.038 38.2425C259.431 38.2425 260.612 38.1429 261.579 37.9439C262.859 37.6879 263.499 37.0905 263.499 36.1519V30.5199H257.568C256.345 30.5199 255.463 30.6194 254.923 30.8185C254.382 30.9892 254.027 31.3305 253.856 31.8425C253.686 32.3545 253.6 33.1794 253.6 34.3172C253.6 35.3412 253.7 36.1375 253.899 36.7065C254.098 37.2469 254.454 37.6452 254.966 37.9012C255.478 38.1289 256.246 38.2425 257.27 38.2425H258.038Z" fill="#021B41"/>
<path d="M274 10.4668H277.84V40.3335H274V10.4668Z" fill="#021B41"/>
</g>
<defs>
<linearGradient id="paint0_linear_60_15221" x1="0.000833236" y1="-9.78634e-05" x2="37.3342" y2="49.9999" gradientUnits="userSpaceOnUse">
<stop offset="0.0625" stop-color="#00D1A9"/>
<stop offset="1" stop-color="#0466D1"/>
</linearGradient>
<linearGradient id="paint1_linear_60_15221" x1="0.000555249" y1="-0.00010084" x2="37.3339" y2="49.9999" gradientUnits="userSpaceOnUse">
<stop offset="0.0625" stop-color="#00D1A9"/>
<stop offset="1" stop-color="#0466D1"/>
</linearGradient>
<linearGradient id="paint2_linear_60_15221" x1="-0.000324955" y1="4.07524e-05" x2="37.333" y2="50" gradientUnits="userSpaceOnUse">
<stop offset="0.0625" stop-color="#00D1A9"/>
<stop offset="1" stop-color="#0466D1"/>
</linearGradient>
<linearGradient id="paint3_linear_60_15221" x1="0.000724954" y1="-0.000124315" x2="37.3341" y2="49.9999" gradientUnits="userSpaceOnUse">
<stop offset="0.0625" stop-color="#00D1A9"/>
<stop offset="1" stop-color="#0466D1"/>
</linearGradient>
<linearGradient id="paint4_linear_60_15221" x1="7.85196e-08" y1="7.1783e-05" x2="37.3333" y2="50.0001" gradientUnits="userSpaceOnUse">
<stop offset="0.0625" stop-color="#00D1A9"/>
<stop offset="1" stop-color="#0466D1"/>
</linearGradient>
<linearGradient id="paint5_linear_60_15221" x1="-0.000828997" y1="0.000185718" x2="37.3325" y2="50.0002" gradientUnits="userSpaceOnUse">
<stop offset="0.0625" stop-color="#00D1A9"/>
<stop offset="1" stop-color="#0466D1"/>
</linearGradient>
<linearGradient id="paint6_linear_60_15221" x1="-0.000172877" y1="0.000227101" x2="37.3332" y2="50.0002" gradientUnits="userSpaceOnUse">
<stop offset="0.0625" stop-color="#00D1A9"/>
<stop offset="1" stop-color="#0466D1"/>
</linearGradient>
<linearGradient id="paint7_linear_60_15221" x1="-0.00033981" y1="4.65527e-05" x2="37.333" y2="50" gradientUnits="userSpaceOnUse">
<stop offset="0.0625" stop-color="#00D1A9"/>
<stop offset="1" stop-color="#0466D1"/>
</linearGradient>
<linearGradient id="paint8_linear_60_15221" x1="0.000676585" y1="-0.000104938" x2="37.334" y2="49.9999" gradientUnits="userSpaceOnUse">
<stop offset="0.0625" stop-color="#00D1A9"/>
<stop offset="1" stop-color="#0466D1"/>
</linearGradient>
<linearGradient id="paint9_linear_60_15221" x1="-0.000260482" y1="-5.43348e-05" x2="37.3331" y2="49.9999" gradientUnits="userSpaceOnUse">
<stop offset="0.0625" stop-color="#00D1A9"/>
<stop offset="1" stop-color="#0466D1"/>
</linearGradient>
<linearGradient id="paint10_linear_60_15221" x1="-0.000446478" y1="-0.000123595" x2="37.3329" y2="49.9999" gradientUnits="userSpaceOnUse">
<stop offset="0.0625" stop-color="#00D1A9"/>
<stop offset="1" stop-color="#0466D1"/>
</linearGradient>
<linearGradient id="paint11_linear_60_15221" x1="0.000612545" y1="-9.40974e-05" x2="37.3339" y2="49.9999" gradientUnits="userSpaceOnUse">
<stop offset="0.0625" stop-color="#00D1A9"/>
<stop offset="1" stop-color="#0466D1"/>
</linearGradient>
<linearGradient id="paint12_linear_60_15221" x1="-0.000647793" y1="0.000206534" x2="37.3327" y2="50.0002" gradientUnits="userSpaceOnUse">
<stop offset="0.0625" stop-color="#00D1A9"/>
<stop offset="1" stop-color="#0466D1"/>
</linearGradient>
<linearGradient id="paint13_linear_60_15221" x1="-0.000151012" y1="9.12404e-05" x2="37.3332" y2="50.0001" gradientUnits="userSpaceOnUse">
<stop offset="0.0625" stop-color="#00D1A9"/>
<stop offset="1" stop-color="#0466D1"/>
</linearGradient>
<linearGradient id="paint14_linear_60_15221" x1="-0.000808551" y1="0.000237797" x2="37.3325" y2="50.0002" gradientUnits="userSpaceOnUse">
<stop offset="0.0625" stop-color="#00D1A9"/>
<stop offset="1" stop-color="#0466D1"/>
</linearGradient>
<linearGradient id="paint15_linear_60_15221" x1="0.000417227" y1="-3.41237e-06" x2="37.3338" y2="50" gradientUnits="userSpaceOnUse">
<stop offset="0.0625" stop-color="#00D1A9"/>
<stop offset="1" stop-color="#0466D1"/>
</linearGradient>
<linearGradient id="paint16_linear_60_15221" x1="-0.000776545" y1="0.000184888" x2="37.3326" y2="50.0002" gradientUnits="userSpaceOnUse">
<stop offset="0.0625" stop-color="#00D1A9"/>
<stop offset="1" stop-color="#0466D1"/>
</linearGradient>
<linearGradient id="paint17_linear_60_15221" x1="-0.000677164" y1="-8.74662e-07" x2="37.3327" y2="50" gradientUnits="userSpaceOnUse">
<stop offset="0.0625" stop-color="#00D1A9"/>
<stop offset="1" stop-color="#0466D1"/>
</linearGradient>
<linearGradient id="paint18_linear_60_15221" x1="0.000554931" y1="4.17809e-06" x2="37.3339" y2="50" gradientUnits="userSpaceOnUse">
<stop offset="0.0625" stop-color="#00D1A9"/>
<stop offset="1" stop-color="#0466D1"/>
</linearGradient>
<linearGradient id="paint19_linear_60_15221" x1="-0.000673493" y1="9.94037e-05" x2="37.3325" y2="50.0001" gradientUnits="userSpaceOnUse">
<stop offset="0.0625" stop-color="#00D1A9"/>
<stop offset="1" stop-color="#0466D1"/>
</linearGradient>
<linearGradient id="paint20_linear_60_15221" x1="0.000807079" y1="-0.000136631" x2="37.3341" y2="49.9999" gradientUnits="userSpaceOnUse">
<stop offset="0.0625" stop-color="#00D1A9"/>
<stop offset="1" stop-color="#0466D1"/>
</linearGradient>
<linearGradient id="paint21_linear_60_15221" x1="-6.85104e-05" y1="0.000233799" x2="37.3332" y2="50.0002" gradientUnits="userSpaceOnUse">
<stop offset="0.0625" stop-color="#00D1A9"/>
<stop offset="1" stop-color="#0466D1"/>
</linearGradient>
<linearGradient id="paint22_linear_60_15221" x1="0.000349088" y1="0.000176114" x2="37.3336" y2="50.0002" gradientUnits="userSpaceOnUse">
<stop offset="0.0625" stop-color="#00D1A9"/>
<stop offset="1" stop-color="#0466D1"/>
</linearGradient>
<linearGradient id="paint23_linear_60_15221" x1="0.000662079" y1="0.000175975" x2="37.334" y2="50.0002" gradientUnits="userSpaceOnUse">
<stop offset="0.0625" stop-color="#00D1A9"/>
<stop offset="1" stop-color="#0466D1"/>
</linearGradient>
<linearGradient id="paint24_linear_60_15221" x1="0.000689438" y1="-0.00018432" x2="37.3341" y2="49.9998" gradientUnits="userSpaceOnUse">
<stop offset="0.0625" stop-color="#00D1A9"/>
<stop offset="1" stop-color="#0466D1"/>
</linearGradient>
<linearGradient id="paint25_linear_60_15221" x1="-0.000673945" y1="-2.08821e-05" x2="37.3327" y2="50" gradientUnits="userSpaceOnUse">
<stop offset="0.0625" stop-color="#00D1A9"/>
<stop offset="1" stop-color="#0466D1"/>
</linearGradient>
<linearGradient id="paint26_linear_60_15221" x1="-0.000918218" y1="8.54305e-05" x2="37.3324" y2="50.0001" gradientUnits="userSpaceOnUse">
<stop offset="0.0625" stop-color="#00D1A9"/>
<stop offset="1" stop-color="#0466D1"/>
</linearGradient>
<linearGradient id="paint27_linear_60_15221" x1="-0.00047324" y1="-0.000209459" x2="37.3329" y2="49.9998" gradientUnits="userSpaceOnUse">
<stop offset="0.0625" stop-color="#00D1A9"/>
<stop offset="1" stop-color="#0466D1"/>
</linearGradient>
<linearGradient id="paint28_linear_60_15221" x1="-0.000197287" y1="-0.000115986" x2="37.3331" y2="49.9999" gradientUnits="userSpaceOnUse">
<stop offset="0.0625" stop-color="#00D1A9"/>
<stop offset="1" stop-color="#0466D1"/>
</linearGradient>
<linearGradient id="paint29_linear_60_15221" x1="0.000383916" y1="-0.000205714" x2="37.3337" y2="49.9998" gradientUnits="userSpaceOnUse">
<stop offset="0.0625" stop-color="#00D1A9"/>
<stop offset="1" stop-color="#0466D1"/>
</linearGradient>
<linearGradient id="paint30_linear_60_15221" x1="-0.000197107" y1="0.000199692" x2="37.3332" y2="50.0002" gradientUnits="userSpaceOnUse">
<stop offset="0.0625" stop-color="#00D1A9"/>
<stop offset="1" stop-color="#0466D1"/>
</linearGradient>
<linearGradient id="paint31_linear_60_15221" x1="0.000384574" y1="-0.000121233" x2="37.3336" y2="49.9998" gradientUnits="userSpaceOnUse">
<stop offset="0.0625" stop-color="#00D1A9"/>
<stop offset="1" stop-color="#0466D1"/>
</linearGradient>
<linearGradient id="paint32_linear_60_15221" x1="-0.00053992" y1="0.000188118" x2="37.3328" y2="50.0002" gradientUnits="userSpaceOnUse">
<stop offset="0.0625" stop-color="#00D1A9"/>
<stop offset="1" stop-color="#0466D1"/>
</linearGradient>
<linearGradient id="paint33_linear_60_15221" x1="-0.000898603" y1="-3.26077e-05" x2="37.3324" y2="50" gradientUnits="userSpaceOnUse">
<stop offset="0.0625" stop-color="#00D1A9"/>
<stop offset="1" stop-color="#0466D1"/>
</linearGradient>
<linearGradient id="paint34_linear_60_15221" x1="0.000699477" y1="-0.000198652" x2="37.334" y2="49.9998" gradientUnits="userSpaceOnUse">
<stop offset="0.0625" stop-color="#00D1A9"/>
<stop offset="1" stop-color="#0466D1"/>
</linearGradient>
<linearGradient id="paint35_linear_60_15221" x1="-5.34679e-05" y1="-0.000115027" x2="37.3332" y2="49.9999" gradientUnits="userSpaceOnUse">
<stop offset="0.0625" stop-color="#00D1A9"/>
<stop offset="1" stop-color="#0466D1"/>
</linearGradient>
<linearGradient id="paint36_linear_60_15221" x1="-5.52566e-05" y1="-5.64847e-05" x2="37.3332" y2="49.9999" gradientUnits="userSpaceOnUse">
<stop offset="0.0625" stop-color="#00D1A9"/>
<stop offset="1" stop-color="#0466D1"/>
</linearGradient>
<linearGradient id="paint37_linear_60_15221" x1="-0.000476572" y1="-8.35173e-05" x2="37.3329" y2="49.9999" gradientUnits="userSpaceOnUse">
<stop offset="0.0625" stop-color="#00D1A9"/>
<stop offset="1" stop-color="#0466D1"/>
</linearGradient>
<linearGradient id="paint38_linear_60_15221" x1="0.000477591" y1="0.000213258" x2="37.3338" y2="50.0003" gradientUnits="userSpaceOnUse">
<stop offset="0.0625" stop-color="#00D1A9"/>
<stop offset="1" stop-color="#0466D1"/>
</linearGradient>
<linearGradient id="paint39_linear_60_15221" x1="-0.000822551" y1="-0.000142806" x2="37.3325" y2="49.9999" gradientUnits="userSpaceOnUse">
<stop offset="0.0625" stop-color="#00D1A9"/>
<stop offset="1" stop-color="#0466D1"/>
</linearGradient>
<linearGradient id="paint40_linear_60_15221" x1="-0.00053689" y1="-4.18878e-05" x2="37.3329" y2="50" gradientUnits="userSpaceOnUse">
<stop offset="0.0625" stop-color="#00D1A9"/>
<stop offset="1" stop-color="#0466D1"/>
</linearGradient>
<linearGradient id="paint41_linear_60_15221" x1="-0.000187874" y1="-0.00014472" x2="37.3333" y2="49.9999" gradientUnits="userSpaceOnUse">
<stop offset="0.0625" stop-color="#00D1A9"/>
<stop offset="1" stop-color="#0466D1"/>
</linearGradient>
<linearGradient id="paint42_linear_60_15221" x1="-0.000559537" y1="-0.00014219" x2="37.3327" y2="49.9998" gradientUnits="userSpaceOnUse">
<stop offset="0.0625" stop-color="#00D1A9"/>
<stop offset="1" stop-color="#0466D1"/>
</linearGradient>
<linearGradient id="paint43_linear_60_15221" x1="-1.53786e-05" y1="-3.06351e-05" x2="37.3333" y2="50" gradientUnits="userSpaceOnUse">
<stop offset="0.0625" stop-color="#00D1A9"/>
<stop offset="1" stop-color="#0466D1"/>
</linearGradient>
<linearGradient id="paint44_linear_60_15221" x1="-1.18993e-05" y1="-0.000141727" x2="37.3333" y2="49.9999" gradientUnits="userSpaceOnUse">
<stop offset="0.0625" stop-color="#00D1A9"/>
<stop offset="1" stop-color="#0466D1"/>
</linearGradient>
<linearGradient id="paint45_linear_60_15221" x1="-0.000704405" y1="8.90122e-05" x2="37.3326" y2="50.0001" gradientUnits="userSpaceOnUse">
<stop offset="0.0625" stop-color="#00D1A9"/>
<stop offset="1" stop-color="#0466D1"/>
</linearGradient>
<linearGradient id="paint46_linear_60_15221" x1="0.000623425" y1="0.000160675" x2="37.334" y2="50.0002" gradientUnits="userSpaceOnUse">
<stop offset="0.0625" stop-color="#00D1A9"/>
<stop offset="1" stop-color="#0466D1"/>
</linearGradient>
<linearGradient id="paint47_linear_60_15221" x1="-3.1284e-05" y1="-0.000157292" x2="37.3333" y2="49.9998" gradientUnits="userSpaceOnUse">
<stop offset="0.0625" stop-color="#00D1A9"/>
<stop offset="1" stop-color="#0466D1"/>
</linearGradient>
<linearGradient id="paint48_linear_60_15221" x1="-1.40767e-05" y1="1.32943e-05" x2="37.3333" y2="50" gradientUnits="userSpaceOnUse">
<stop offset="0.0625" stop-color="#00D1A9"/>
<stop offset="1" stop-color="#0466D1"/>
</linearGradient>
<linearGradient id="paint49_linear_60_15221" x1="0.000183126" y1="0.000202135" x2="37.3335" y2="50.0002" gradientUnits="userSpaceOnUse">
<stop offset="0.0625" stop-color="#00D1A9"/>
<stop offset="1" stop-color="#0466D1"/>
</linearGradient>
<linearGradient id="paint50_linear_60_15221" x1="0.000927208" y1="0.000131443" x2="37.3343" y2="50.0002" gradientUnits="userSpaceOnUse">
<stop offset="0.0625" stop-color="#00D1A9"/>
<stop offset="1" stop-color="#0466D1"/>
</linearGradient>
<linearGradient id="paint51_linear_60_15221" x1="0.000149557" y1="-0.000201038" x2="37.3335" y2="49.9998" gradientUnits="userSpaceOnUse">
<stop offset="0.0625" stop-color="#00D1A9"/>
<stop offset="1" stop-color="#0466D1"/>
</linearGradient>
<linearGradient id="paint52_linear_60_15221" x1="0.000632199" y1="8.10955e-05" x2="37.334" y2="50.0001" gradientUnits="userSpaceOnUse">
<stop offset="0.0625" stop-color="#00D1A9"/>
<stop offset="1" stop-color="#0466D1"/>
</linearGradient>
<linearGradient id="paint53_linear_60_15221" x1="0.000876332" y1="-3.39885e-05" x2="37.3342" y2="50" gradientUnits="userSpaceOnUse">
<stop offset="0.0625" stop-color="#00D1A9"/>
<stop offset="1" stop-color="#0466D1"/>
</linearGradient>
<linearGradient id="paint54_linear_60_15221" x1="4.26552e-05" y1="4.12912e-07" x2="37.3334" y2="50" gradientUnits="userSpaceOnUse">
<stop offset="0.0625" stop-color="#00D1A9"/>
<stop offset="1" stop-color="#0466D1"/>
</linearGradient>
<linearGradient id="paint55_linear_60_15221" x1="-0.000164978" y1="0.000162421" x2="37.3331" y2="50.0002" gradientUnits="userSpaceOnUse">
<stop offset="0.0625" stop-color="#00D1A9"/>
<stop offset="1" stop-color="#0466D1"/>
</linearGradient>
<linearGradient id="paint56_linear_60_15221" x1="-0.000337952" y1="-0.000181436" x2="37.333" y2="49.9998" gradientUnits="userSpaceOnUse">
<stop offset="0.0625" stop-color="#00D1A9"/>
<stop offset="1" stop-color="#0466D1"/>
</linearGradient>
<clipPath id="clip0_60_15221">
<rect width="278" height="50" fill="white"/>
</clipPath>
</defs>
</svg>
