<svg width="32" height="48" viewBox="0 0 32 48" fill="none" xmlns="http://www.w3.org/2000/svg">
<path d="M32 0H10C4.47715 0 0 4.47715 0 10V38C0 43.5228 4.47715 48 10 48H32V0Z" fill="white"/>
<path d="M19.2324 30.0667C19.3991 29.9 19.4824 29.7027 19.4824 29.4747C19.4824 29.2467 19.3991 29.0495 19.2324 28.8833L14.3491 24L19.2491 19.1C19.4046 18.9444 19.4824 18.75 19.4824 18.5167C19.4824 18.2833 19.3991 18.0833 19.2324 17.9167C19.0658 17.75 18.8684 17.6667 18.6404 17.6667C18.4124 17.6667 18.2153 17.75 18.0491 17.9167L12.4491 23.5333C12.3824 23.6 12.3351 23.6722 12.3071 23.75C12.2791 23.8278 12.2653 23.9111 12.2658 24C12.2658 24.0889 12.2798 24.1722 12.3078 24.25C12.3358 24.3278 12.3829 24.4 12.4491 24.4667L18.0658 30.0833C18.2213 30.2389 18.4131 30.3167 18.6411 30.3167C18.8691 30.3167 19.0662 30.2333 19.2324 30.0667Z" fill="#0466D1"/>
</svg>
