<svg width="834" height="150" viewBox="0 0 834 150" fill="none" xmlns="http://www.w3.org/2000/svg">
<path fill-rule="evenodd" clip-rule="evenodd" d="M54.4672 68.9661C55.0324 68.9275 55.5218 69.3545 55.5603 69.9197C55.7277 72.3738 56.3975 81.2548 61.8007 90.9234C67.1879 100.563 77.3177 111.055 96.5409 116.704C97.0844 116.863 97.3956 117.434 97.2359 117.977C97.0761 118.521 96.506 118.832 95.9625 118.672C76.2063 112.867 65.6498 102.016 60.0099 91.9242C54.3861 81.861 53.6882 72.62 53.5136 70.0592C53.475 69.494 53.902 69.0046 54.4672 68.9661Z" fill="url(#paint0_linear_598_3541)"/>
<path fill-rule="evenodd" clip-rule="evenodd" d="M27.012 53.919C25.3125 53.919 23.9347 55.2968 23.9347 56.9964C23.9347 58.6959 25.3125 60.0737 27.012 60.0737C28.7116 60.0737 30.0893 58.6959 30.0893 56.9964C30.0893 55.2968 28.7116 53.919 27.012 53.919ZM21.8831 56.9964C21.8831 54.1638 24.1794 51.8675 27.012 51.8675C29.8446 51.8675 32.1409 54.1638 32.1409 56.9964C32.1409 59.8289 29.8446 62.1252 27.012 62.1252C24.1794 62.1252 21.8831 59.8289 21.8831 56.9964Z" fill="url(#paint1_linear_598_3541)"/>
<path fill-rule="evenodd" clip-rule="evenodd" d="M12.9931 29.3005C11.2936 29.3005 9.9158 30.6783 9.9158 32.3778C9.9158 34.0774 11.2936 35.4551 12.9931 35.4551C14.6927 35.4551 16.0704 34.0774 16.0704 32.3778C16.0704 30.6783 14.6927 29.3005 12.9931 29.3005ZM7.86426 32.3778C7.86426 29.5452 10.1605 27.2489 12.9931 27.2489C15.8257 27.2489 18.122 29.5452 18.122 32.3778C18.122 35.2104 15.8257 37.5067 12.9931 37.5067C10.1605 37.5067 7.86426 35.2104 7.86426 32.3778Z" fill="url(#paint2_linear_598_3541)"/>
<path fill-rule="evenodd" clip-rule="evenodd" d="M20.1735 10.8366C18.474 10.8366 17.0962 12.2143 17.0962 13.9139C17.0962 15.6135 18.474 16.9912 20.1735 16.9912C21.8731 16.9912 23.2508 15.6135 23.2508 13.9139C23.2508 12.2143 21.8731 10.8366 20.1735 10.8366ZM15.0447 13.9139C15.0447 11.0813 17.3409 8.78504 20.1735 8.78504C23.0061 8.78504 25.3024 11.0813 25.3024 13.9139C25.3024 16.7465 23.0061 19.0428 20.1735 19.0428C17.3409 19.0428 15.0447 16.7465 15.0447 13.9139Z" fill="url(#paint3_linear_598_3541)"/>
<path fill-rule="evenodd" clip-rule="evenodd" d="M5.12886 74.7764C3.42931 74.7764 2.05155 76.1542 2.05155 77.8537C2.05155 79.5533 3.42931 80.931 5.12886 80.931C6.82842 80.931 8.20618 79.5533 8.20618 77.8537C8.20618 76.1542 6.82842 74.7764 5.12886 74.7764ZM0 77.8537C0 75.0211 2.29627 72.7249 5.12886 72.7249C7.96146 72.7249 10.2577 75.0211 10.2577 77.8537C10.2577 80.6863 7.96146 82.9826 5.12886 82.9826C2.29627 82.9826 0 80.6863 0 77.8537Z" fill="url(#paint4_linear_598_3541)"/>
<path fill-rule="evenodd" clip-rule="evenodd" d="M100.868 60.7575C99.1681 60.7575 97.7903 62.1353 97.7903 63.8348C97.7903 65.5344 99.1681 66.9122 100.868 66.9122C102.567 66.9122 103.945 65.5344 103.945 63.8348C103.945 62.1353 102.567 60.7575 100.868 60.7575ZM95.7388 63.8348C95.7388 61.0022 98.035 58.706 100.868 58.706C103.7 58.706 105.997 61.0022 105.997 63.8348C105.997 66.6674 103.7 68.9637 100.868 68.9637C98.035 68.9637 95.7388 66.6674 95.7388 63.8348Z" fill="url(#paint5_linear_598_3541)"/>
<path fill-rule="evenodd" clip-rule="evenodd" d="M85.1391 59.0479C83.4396 59.0479 82.0618 60.4257 82.0618 62.1252C82.0618 63.8248 83.4396 65.2025 85.1391 65.2025C86.8387 65.2025 88.2164 63.8248 88.2164 62.1252C88.2164 60.4257 86.8387 59.0479 85.1391 59.0479ZM80.0103 62.1252C80.0103 59.2926 82.3065 56.9964 85.1391 56.9964C87.9717 56.9964 90.268 59.2926 90.268 62.1252C90.268 64.9578 87.9717 67.2541 85.1391 67.2541C82.3065 67.2541 80.0103 64.9578 80.0103 62.1252Z" fill="url(#paint6_linear_598_3541)"/>
<path fill-rule="evenodd" clip-rule="evenodd" d="M91.9776 95.9757C90.2781 95.9757 88.9003 97.3535 88.9003 99.053C88.9003 100.753 90.2781 102.13 91.9776 102.13C93.6772 102.13 95.0549 100.753 95.0549 99.053C95.0549 97.3535 93.6772 95.9757 91.9776 95.9757ZM86.8487 99.053C86.8487 96.2204 89.145 93.9242 91.9776 93.9242C94.8102 93.9242 97.1065 96.2204 97.1065 99.053C97.1065 101.886 94.8102 104.182 91.9776 104.182C89.145 104.182 86.8487 101.886 86.8487 99.053Z" fill="url(#paint7_linear_598_3541)"/>
<path fill-rule="evenodd" clip-rule="evenodd" d="M100.266 116.376C98.566 116.376 97.1883 117.754 97.1883 119.453C97.1883 121.153 98.566 122.53 100.266 122.53C101.965 122.53 103.343 121.153 103.343 119.453C103.343 117.754 101.965 116.376 100.266 116.376ZM95.1367 119.453C95.1367 116.621 97.433 114.324 100.266 114.324C103.098 114.324 105.394 116.621 105.394 119.453C105.394 122.286 103.098 124.582 100.266 124.582C97.433 124.582 95.1367 122.286 95.1367 119.453Z" fill="url(#paint8_linear_598_3541)"/>
<path fill-rule="evenodd" clip-rule="evenodd" d="M54.3659 62.8091C52.6664 62.8091 51.2886 64.1868 51.2886 65.8864C51.2886 67.5859 52.6664 68.9637 54.3659 68.9637C56.0655 68.9637 57.4433 67.5859 57.4433 65.8864C57.4433 64.1868 56.0655 62.8091 54.3659 62.8091ZM49.2371 65.8864C49.2371 63.0538 51.5334 60.7575 54.3659 60.7575C57.1985 60.7575 59.4948 63.0538 59.4948 65.8864C59.4948 68.719 57.1985 71.0152 54.3659 71.0152C51.5334 71.0152 49.2371 68.719 49.2371 65.8864Z" fill="url(#paint9_linear_598_3541)"/>
<path fill-rule="evenodd" clip-rule="evenodd" d="M85.8929 65.3785C86.4566 65.3226 86.9589 65.7343 87.0148 66.2981C87.6072 72.2766 93.1009 85.6727 110.528 90.1959C111.077 90.3382 111.406 90.8981 111.264 91.4464C111.121 91.9948 110.561 92.324 110.013 92.1816C91.6067 87.4045 85.6345 73.1732 84.9732 66.5004C84.9174 65.9367 85.3291 65.4343 85.8929 65.3785Z" fill="url(#paint10_linear_598_3541)"/>
<path fill-rule="evenodd" clip-rule="evenodd" d="M78.9845 30.3263C77.2849 30.3263 75.9072 31.704 75.9072 33.4036C75.9072 35.1031 77.2849 36.4809 78.9845 36.4809C80.684 36.4809 82.0618 35.1031 82.0618 33.4036C82.0618 31.704 80.684 30.3263 78.9845 30.3263ZM73.8556 33.4036C73.8556 30.571 76.1519 28.2747 78.9845 28.2747C81.8171 28.2747 84.1134 30.571 84.1134 33.4036C84.1134 36.2362 81.8171 38.5324 78.9845 38.5324C76.1519 38.5324 73.8556 36.2362 73.8556 33.4036Z" fill="url(#paint11_linear_598_3541)"/>
<path fill-rule="evenodd" clip-rule="evenodd" d="M81.5573 35.367C81.9837 34.9939 82.6317 35.0371 83.0048 35.4635C86.9449 39.9665 94.811 53.6779 95.5169 69.4375C95.5769 70.7781 95.8805 71.997 96.5766 72.9411C98.9911 76.2155 103.91 80.9957 110.876 82.846C111.423 82.9914 111.749 83.5532 111.604 84.1007C111.458 84.6483 110.897 84.9742 110.349 84.8288C102.79 82.8209 97.5148 77.6702 94.9254 74.1587C93.8973 72.7643 93.5373 71.0911 93.4674 69.5293C92.7851 54.2964 85.1379 41.0169 81.4608 36.8144C81.0878 36.3881 81.131 35.7401 81.5573 35.367Z" fill="url(#paint12_linear_598_3541)"/>
<path fill-rule="evenodd" clip-rule="evenodd" d="M101.947 66.7825C102.491 66.6234 103.061 66.9351 103.22 67.4788C103.527 68.5277 104.265 70.1381 105.446 71.466C106.618 72.7825 108.155 73.7506 110.1 73.7506C110.666 73.7506 111.125 74.2099 111.125 74.7764C111.125 75.3429 110.666 75.8022 110.1 75.8022C107.394 75.8022 105.341 74.4338 103.914 72.8297C102.497 71.237 101.628 69.3427 101.251 68.0551C101.092 67.5114 101.403 66.9416 101.947 66.7825Z" fill="url(#paint13_linear_598_3541)"/>
<path fill-rule="evenodd" clip-rule="evenodd" d="M43.0824 102.814C41.3829 102.814 40.0051 104.192 40.0051 105.892C40.0051 107.591 41.3829 108.969 43.0824 108.969C44.782 108.969 46.1598 107.591 46.1598 105.892C46.1598 104.192 44.782 102.814 43.0824 102.814ZM37.9536 105.892C37.9536 103.059 40.2499 100.763 43.0824 100.763C45.915 100.763 48.2113 103.059 48.2113 105.892C48.2113 108.724 45.915 111.02 43.0824 111.02C40.2499 111.02 37.9536 108.724 37.9536 105.892Z" fill="url(#paint14_linear_598_3541)"/>
<path fill-rule="evenodd" clip-rule="evenodd" d="M17.4381 129.142C19.1377 129.142 20.5155 127.765 20.5155 126.065C20.5155 124.365 19.1377 122.988 17.4381 122.988C15.7386 122.988 14.3608 124.365 14.3608 126.065C14.3608 127.765 15.7386 129.142 17.4381 129.142ZM22.567 126.065C22.567 128.898 20.2707 131.194 17.4381 131.194C14.6055 131.194 12.3093 128.898 12.3093 126.065C12.3093 123.232 14.6055 120.936 17.4381 120.936C20.2707 120.936 22.567 123.232 22.567 126.065Z" fill="url(#paint15_linear_598_3541)"/>
<path fill-rule="evenodd" clip-rule="evenodd" d="M32.4828 145.555C34.1824 145.555 35.5601 144.177 35.5601 142.477C35.5601 140.778 34.1824 139.4 32.4828 139.4C30.7832 139.4 29.4055 140.778 29.4055 142.477C29.4055 144.177 30.7832 145.555 32.4828 145.555ZM37.6117 142.477C37.6117 145.31 35.3154 147.606 32.4828 147.606C29.6502 147.606 27.3539 145.31 27.3539 142.477C27.3539 139.645 29.6502 137.349 32.4828 137.349C35.3154 137.349 37.6117 139.645 37.6117 142.477Z" fill="url(#paint16_linear_598_3541)"/>
<path fill-rule="evenodd" clip-rule="evenodd" d="M26.3282 127.091L26.3282 61.4414H28.3797L28.3797 127.091H26.3282Z" fill="url(#paint17_linear_598_3541)"/>
<path fill-rule="evenodd" clip-rule="evenodd" d="M21.8831 125.723H28.3797V127.775H21.8831V125.723Z" fill="url(#paint18_linear_598_3541)"/>
<path fill-rule="evenodd" clip-rule="evenodd" d="M36.9278 141.794H54.3659V143.845H36.9278V141.794Z" fill="url(#paint19_linear_598_3541)"/>
<path fill-rule="evenodd" clip-rule="evenodd" d="M9.23195 77.1699H12.6512V79.2214H9.23195V77.1699Z" fill="url(#paint20_linear_598_3541)"/>
<path fill-rule="evenodd" clip-rule="evenodd" d="M5.81271 65.2025H17.7801V67.2541H5.81271V65.2025Z" fill="url(#paint21_linear_598_3541)"/>
<path fill-rule="evenodd" clip-rule="evenodd" d="M18.122 56.3125H22.567V58.364H18.122V56.3125Z" fill="url(#paint22_linear_598_3541)"/>
<path fill-rule="evenodd" clip-rule="evenodd" d="M31.457 56.3125H35.902V58.364H31.457V56.3125Z" fill="url(#paint23_linear_598_3541)"/>
<path fill-rule="evenodd" clip-rule="evenodd" d="M10.2577 40.584H55.3917V42.6355H10.2577V40.584Z" fill="url(#paint24_linear_598_3541)"/>
<path fill-rule="evenodd" clip-rule="evenodd" d="M36.9278 127.091L55.3917 127.091L55.3917 125.039L36.9278 125.039L36.9278 127.091Z" fill="url(#paint25_linear_598_3541)"/>
<path fill-rule="evenodd" clip-rule="evenodd" d="M17.7801 32.0359H36.244V34.0874H17.7801V32.0359Z" fill="url(#paint26_linear_598_3541)"/>
<path fill-rule="evenodd" clip-rule="evenodd" d="M19.4897 25.1974H27.3539V27.2489H19.4897V25.1974Z" fill="url(#paint27_linear_598_3541)"/>
<path fill-rule="evenodd" clip-rule="evenodd" d="M11.4838 41.0897C11.771 41.578 11.608 42.2067 11.1197 42.4939C10.5765 42.8134 8.89003 44.6929 8.89003 49.1321C8.89003 49.6986 8.43078 50.1579 7.86426 50.1579C7.29774 50.1579 6.83848 49.6986 6.83848 49.1321C6.83848 44.2709 8.68518 41.5458 10.0796 40.7256C10.5679 40.4384 11.1966 40.6014 11.4838 41.0897Z" fill="url(#paint28_linear_598_3541)"/>
<path fill-rule="evenodd" clip-rule="evenodd" d="M38.1539 126.585C38.4411 126.097 38.2781 125.468 37.7898 125.181C37.5775 125.056 37.0065 124.484 36.4816 123.259C35.9771 122.081 35.5601 120.396 35.5601 118.201C35.5601 117.634 35.1009 117.175 34.5343 117.175C33.9678 117.175 33.5086 117.634 33.5086 118.201C33.5086 120.656 33.9749 122.618 34.5959 124.067C35.1965 125.469 35.9932 126.504 36.7496 126.949C37.238 127.236 37.8666 127.073 38.1539 126.585Z" fill="url(#paint29_linear_598_3541)"/>
<path fill-rule="evenodd" clip-rule="evenodd" d="M6.83848 48.1063H55.3917V50.1579H6.83848V48.1063Z" fill="url(#paint30_linear_598_3541)"/>
<path fill-rule="evenodd" clip-rule="evenodd" d="M33.5086 119.227H55.3917V117.175H33.5086V119.227Z" fill="url(#paint31_linear_598_3541)"/>
<path fill-rule="evenodd" clip-rule="evenodd" d="M54.4198 117.56C54.7737 117.118 55.4192 117.046 55.8616 117.4C57.0784 118.373 61.8932 121.589 68.2945 125.238C74.6818 128.879 82.5725 132.906 89.9285 135.527C90.4621 135.718 90.7406 136.304 90.5504 136.838C90.3603 137.372 89.7735 137.65 89.2399 137.46C81.7221 134.781 73.7134 130.688 67.2785 127.02C60.8577 123.36 55.9276 120.08 54.58 119.002C54.1376 118.648 54.0659 118.002 54.4198 117.56Z" fill="url(#paint32_linear_598_3541)"/>
<path fill-rule="evenodd" clip-rule="evenodd" d="M54.5908 125.424C54.9447 124.982 55.5902 124.91 56.0326 125.264C58.5804 127.302 69.5775 135.925 82.9065 140.481C83.4425 140.664 83.7286 141.247 83.5454 141.783C83.3622 142.319 82.7791 142.605 82.243 142.422C68.5599 137.746 57.332 128.931 54.751 126.866C54.3086 126.512 54.2369 125.867 54.5908 125.424Z" fill="url(#paint33_linear_598_3541)"/>
<path fill-rule="evenodd" clip-rule="evenodd" d="M61.8253 51.325C59.5253 50.3245 57.1057 50.0781 55.6166 50.1564C55.0509 50.1862 54.5681 49.7517 54.5384 49.186C54.5086 48.6203 54.9431 48.1375 55.5088 48.1077C57.268 48.0151 60.0114 48.2987 62.6437 49.4437C65.2946 50.5969 67.8925 52.6548 69.1761 56.1279C69.902 58.0922 70.3561 60.8998 70.8618 64.0262C70.8926 64.2164 70.9235 64.4077 70.9548 64.6002C71.5078 68.0093 72.1569 71.8654 73.2814 75.7751C75.5279 83.5853 79.6379 91.4929 88.5308 96.2687C89.0299 96.5368 89.2172 97.1586 88.9492 97.6577C88.6812 98.1568 88.0593 98.3442 87.5602 98.0761C77.9892 92.9362 73.6366 84.4314 71.3098 76.3422C70.1478 72.3021 69.4825 68.3366 68.9297 64.9287C68.9058 64.7816 68.8822 64.6358 68.8588 64.4912C68.3309 61.2327 67.9058 58.6088 67.2517 56.839C66.2102 54.0207 64.1067 52.3174 61.8253 51.325Z" fill="url(#paint34_linear_598_3541)"/>
<path fill-rule="evenodd" clip-rule="evenodd" d="M42.3986 55.9706H55.3917V58.0221H42.3986V55.9706Z" fill="url(#paint35_linear_598_3541)"/>
<path fill-rule="evenodd" clip-rule="evenodd" d="M42.3986 64.8606H50.6048V66.9122H42.3986V64.8606Z" fill="url(#paint36_linear_598_3541)"/>
<path fill-rule="evenodd" clip-rule="evenodd" d="M54.2035 56.8637C54.2768 56.3019 54.7916 55.9059 55.3534 55.9792C58.5024 56.3899 65.1337 60.311 65.9882 71.2775C66.4996 77.8402 67.4296 85.9766 72.5858 93.4935C77.7236 100.984 87.1694 108.009 105.027 112.072C105.58 112.197 105.926 112.747 105.8 113.299C105.674 113.852 105.125 114.198 104.572 114.072C86.357 109.928 76.3986 102.679 70.894 94.654C65.4078 86.6561 64.4573 78.0382 63.9429 71.4368C63.1562 61.3408 57.1819 58.2866 55.088 58.0135C54.5263 57.9402 54.1303 57.4254 54.2035 56.8637Z" fill="url(#paint37_linear_598_3541)"/>
<path fill-rule="evenodd" clip-rule="evenodd" d="M53.6821 61.7833V48.1063H55.7336V61.7833H53.6821Z" fill="url(#paint38_linear_598_3541)"/>
<path fill-rule="evenodd" clip-rule="evenodd" d="M54.3717 41.5002C54.4323 40.9369 54.9379 40.5293 55.5012 40.5899C59.072 40.9735 64.7071 42.4515 69.357 45.6548C74.0443 48.8838 77.7965 53.9281 77.2722 61.3428C76.1224 77.6052 89.9608 92.9894 109.622 97.0224C110.177 97.1362 110.534 97.6784 110.421 98.2334C110.307 98.7883 109.764 99.1459 109.21 99.0321C88.8653 94.8589 73.9822 78.7861 75.2258 61.1981C75.6855 54.6969 72.4567 50.2813 68.1932 47.3442C63.8923 44.3813 58.6068 42.9869 55.2821 42.6297C54.7188 42.5691 54.3112 42.0635 54.3717 41.5002Z" fill="url(#paint39_linear_598_3541)"/>
<path fill-rule="evenodd" clip-rule="evenodd" d="M35.902 105.208H38.9794V107.259H35.902V105.208Z" fill="url(#paint40_linear_598_3541)"/>
<path fill-rule="evenodd" clip-rule="evenodd" d="M43.4244 94.9499H54.024V97.0015H43.4244V94.9499Z" fill="url(#paint41_linear_598_3541)"/>
<path fill-rule="evenodd" clip-rule="evenodd" d="M46.5017 105.55H54.024V107.601H46.5017V105.55Z" fill="url(#paint42_linear_598_3541)"/>
<path fill-rule="evenodd" clip-rule="evenodd" d="M53.4751 95.1091C53.9538 94.806 54.5875 94.9483 54.8906 95.4269C54.9795 95.5673 55.1021 95.7943 55.238 96.046C55.3297 96.2158 55.4275 96.3969 55.5251 96.5702C55.8013 97.0606 56.1814 97.6916 56.727 98.4583C57.8181 99.9915 59.5892 102.092 62.5447 104.694C68.4622 109.904 79.1206 117.12 98.5511 125.813C99.0682 126.044 99.2999 126.651 99.0686 127.168C98.8372 127.685 98.2304 127.917 97.7133 127.685C78.1645 118.94 67.3101 111.623 61.189 106.234C58.1252 103.536 56.2456 101.32 55.0555 99.6478C54.4604 98.8117 54.0422 98.1177 53.7376 97.577C53.5716 97.2823 53.4582 97.0697 53.3713 96.907C53.281 96.7379 53.2195 96.6225 53.1574 96.5246C52.8543 96.0459 52.9965 95.4122 53.4751 95.1091Z" fill="url(#paint43_linear_598_3541)"/>
<path fill-rule="evenodd" clip-rule="evenodd" d="M53.4751 105.709C53.9538 105.406 54.5875 105.548 54.8906 106.027C54.9663 106.146 55.2793 106.533 55.8908 107.185C56.4782 107.811 57.2919 108.629 58.3138 109.589C60.3574 111.509 63.2213 113.983 66.7528 116.608C73.8226 121.863 83.5278 127.689 94.6548 130.892C95.1992 131.049 95.5135 131.617 95.3568 132.162C95.2001 132.706 94.6317 133.02 94.0873 132.863C82.6473 129.57 72.7204 123.6 65.529 118.255C61.93 115.58 59.0061 113.054 56.9092 111.084C55.8609 110.099 55.0162 109.251 54.395 108.589C53.798 107.953 53.3524 107.432 53.1574 107.124C52.8543 106.646 52.9965 106.012 53.4751 105.709Z" fill="url(#paint44_linear_598_3541)"/>
<path fill-rule="evenodd" clip-rule="evenodd" d="M53.8171 141.953C54.2957 141.65 54.9294 141.792 55.2325 142.27C55.652 142.933 56.8194 143.987 58.4702 145.113C60.0794 146.212 62.0107 147.286 63.8153 148.025C64.3396 148.239 64.5908 148.838 64.3763 149.362C64.1618 149.887 63.5629 150.138 63.0385 149.923C61.082 149.123 59.0242 147.975 57.3138 146.808C55.6451 145.669 54.1626 144.415 53.4993 143.368C53.1962 142.89 53.3385 142.256 53.8171 141.953Z" fill="url(#paint45_linear_598_3541)"/>
<path fill-rule="evenodd" clip-rule="evenodd" d="M18.122 56.3125V121.62H16.0704L16.0704 56.3125H18.122Z" fill="url(#paint46_linear_598_3541)"/>
<path fill-rule="evenodd" clip-rule="evenodd" d="M12.6512 77.1699V121.62H10.5997L10.5997 77.1699H12.6512Z" fill="url(#paint47_linear_598_3541)"/>
<path fill-rule="evenodd" clip-rule="evenodd" d="M10.8737 120.751C11.2592 120.336 11.9083 120.312 12.3234 120.697L14.7169 122.92C15.132 123.305 15.1561 123.954 14.7706 124.37C14.3851 124.785 13.7361 124.809 13.3209 124.423L10.9274 122.201C10.5123 121.815 10.4883 121.166 10.8737 120.751Z" fill="url(#paint48_linear_598_3541)"/>
<path fill-rule="evenodd" clip-rule="evenodd" d="M5.81271 65.2025V74.4345H3.76117L3.76117 65.2025H5.81271Z" fill="url(#paint49_linear_598_3541)"/>
<path fill-rule="evenodd" clip-rule="evenodd" d="M20.8574 17.3331V27.2489H18.8058V17.3331H20.8574Z" fill="url(#paint50_linear_598_3541)"/>
<path fill-rule="evenodd" clip-rule="evenodd" d="M37.6117 12.9835L37.6117 107.259H35.5601L35.5601 11.4308L36.3037 11.2181C47.3177 8.0671 64.2283 6.93159 79.1635 13.8508C94.1858 20.8103 107.02 35.8315 109.923 64.5866C109.98 65.1503 109.57 65.6533 109.006 65.7102C108.442 65.7671 107.939 65.3563 107.882 64.7927C105.041 36.6516 92.5732 22.3243 78.3011 15.7123C64.2707 9.21225 48.315 10.0849 37.6117 12.9835Z" fill="url(#paint51_linear_598_3541)"/>
<path fill-rule="evenodd" clip-rule="evenodd" d="M44.1082 19.8405L44.1082 102.472H42.0567L42.0567 18.2531L42.8201 18.0511C51.279 15.8129 64.3248 15.2538 76.013 20.7252C87.7768 26.232 98.0141 37.7791 100.859 59.4271L100.993 60.4442L98.9585 60.7115L98.8248 59.6944C96.0621 38.6703 86.2113 27.7644 75.1432 22.5832C64.3427 17.5274 52.2401 17.8582 44.1082 19.8405Z" fill="url(#paint52_linear_598_3541)"/>
<path fill-rule="evenodd" clip-rule="evenodd" d="M50.6048 34.9038L50.6048 24.4835L51.6601 24.514C54.6644 24.6006 59.4684 24.9721 64.154 25.8074C66.4974 26.2252 68.8304 26.7622 70.9028 27.4453C72.9619 28.1239 74.8299 28.9677 76.195 30.0295L77.0047 30.6592L75.7452 32.2786L74.9355 31.6488C73.8387 30.7958 72.2249 30.0411 70.2606 29.3937C68.3098 28.7508 66.078 28.2343 63.794 27.8271C59.7409 27.1046 55.5836 26.7369 52.6563 26.6042L52.6563 32.6157C57.2689 32.2764 63.8615 33.0327 70.0453 36.3142C76.8051 39.9014 83.027 46.4834 85.6259 57.7924L85.8557 58.7921L83.8563 59.2516L83.6265 58.2519C81.165 47.5409 75.3341 41.4433 69.0836 38.1264C62.7916 34.7874 56.0246 34.2437 51.7546 34.7638L50.6048 34.9038Z" fill="url(#paint53_linear_598_3541)"/>
<path fill-rule="evenodd" clip-rule="evenodd" d="M25.9862 5.40894L26.6239 5.1483C33.5265 2.32689 45.3283 -0.574552 58.0701 0.0982834C70.8272 0.771932 84.6032 5.03624 95.2963 16.6379C95.6803 17.0545 95.6538 17.7035 95.2372 18.0874C94.8207 18.4714 94.1717 18.4449 93.7878 18.0283C83.5552 6.92628 70.3476 2.80101 57.9619 2.14697C45.9479 1.51257 34.7793 4.15148 28.0378 6.79221L28.0378 52.5513H25.9862L25.9862 5.40894Z" fill="url(#paint54_linear_598_3541)"/>
<path fill-rule="evenodd" clip-rule="evenodd" d="M17.88 129.496C18.3457 129.173 18.9847 129.289 19.3072 129.755L21.3648 132.727C21.8118 133.373 22.5473 133.758 23.3327 133.758H54.6007C55.1326 133.758 55.7174 133.856 56.2658 134.154C56.9152 134.506 57.9052 135.103 59.1626 135.861C62.7909 138.049 68.6453 141.578 74.9639 144.45C75.4796 144.684 75.7077 145.292 75.4732 145.808C75.2388 146.324 74.6307 146.552 74.1149 146.318C67.6623 143.385 61.5317 139.688 57.9317 137.518C56.7531 136.807 55.8458 136.26 55.2872 135.957C55.1149 135.863 54.8887 135.81 54.6007 135.81H23.3327C21.8741 135.81 20.5083 135.094 19.678 133.895L17.6205 130.923C17.298 130.457 17.4142 129.818 17.88 129.496Z" fill="url(#paint55_linear_598_3541)"/>
<path fill-rule="evenodd" clip-rule="evenodd" d="M94.7321 100.51C95.0606 100.048 95.701 99.9403 96.1626 100.269C96.3143 100.377 96.4581 100.479 96.5953 100.577C97.8241 101.456 98.527 101.958 99.6847 102.458C101.004 103.028 102.92 103.595 106.758 104.554C107.308 104.692 107.642 105.249 107.505 105.798C107.367 106.348 106.81 106.682 106.261 106.545C102.44 105.59 100.367 104.988 98.8708 104.341C97.5031 103.75 96.6255 103.122 95.4144 102.255C95.2724 102.154 95.1258 102.049 94.9732 101.94C94.5116 101.612 94.4037 100.971 94.7321 100.51Z" fill="url(#paint56_linear_598_3541)"/>
<path d="M146.391 37.928H173.527C177.367 37.928 180.439 38.0134 182.743 38.184C185.132 38.3547 187.649 38.7387 190.295 39.336C193.025 39.9334 195.201 40.8294 196.823 42.024C198.529 43.2187 199.98 44.84 201.175 46.888C202.284 48.8507 202.839 51.3254 202.839 54.312V71.592C202.839 78.504 200.151 83.496 194.775 86.568C189.484 89.5547 181.633 91.048 171.223 91.048H158.807V121H146.391V37.928ZM172.887 83.24C178.263 83.24 182.572 82.2587 185.815 80.296C189.057 78.3334 190.679 75.2187 190.679 70.952V55.848C190.679 53.544 190.081 51.6667 188.887 50.216C187.692 48.68 185.985 47.6134 183.767 47.016C181.633 46.504 179.841 46.1627 178.391 45.992C176.94 45.8214 175.02 45.736 172.631 45.736H158.679V83.24H172.887Z" fill="#021B41"/>
<path d="M218.623 59.048H229.503V69.16C229.503 67.1974 230.356 65.3627 232.063 63.656C233.769 61.864 235.945 60.456 238.591 59.432C241.236 58.3227 243.839 57.768 246.399 57.768H252.031V67.624H245.631C240.169 67.624 236.201 68.3494 233.727 69.8C231.337 71.1654 230.143 73.6827 230.143 77.352V121H218.623V59.048Z" fill="#021B41"/>
<path d="M289.738 122.28C284.276 122.28 280.18 122.067 277.45 121.64C274.719 121.299 271.988 120.488 269.258 119.208C266.442 117.928 264.394 115.88 263.114 113.064C261.834 110.163 261.194 106.28 261.194 101.416V79.912C261.194 76.072 261.663 72.7014 262.602 69.8C263.54 66.8987 264.778 64.6374 266.314 63.016C267.594 61.5654 269.514 60.456 272.074 59.688C274.719 58.8347 277.407 58.28 280.138 58.024C283.21 57.8534 286.41 57.768 289.738 57.768C294.175 57.768 297.503 57.896 299.722 58.152C302.026 58.3227 304.458 58.7494 307.018 59.432C309.663 60.2 311.711 61.352 313.162 62.888C314.612 64.424 315.85 66.6427 316.874 69.544C317.812 72.5307 318.282 75.9867 318.282 79.912V101.416C318.282 108.669 316.618 113.96 313.29 117.288C311.924 118.653 309.962 119.72 307.402 120.488C304.842 121.256 302.196 121.768 299.466 122.024C296.223 122.195 292.98 122.28 289.738 122.28ZM289.738 114.728C293.322 114.728 295.924 114.643 297.546 114.472C299.167 114.301 300.746 113.832 302.282 113.064C303.818 112.381 304.884 111.272 305.482 109.736C306.164 108.115 306.506 105.896 306.506 103.08V77.992C306.506 74.152 306.036 71.3787 305.098 69.672C304.159 67.88 302.538 66.728 300.234 66.216C298.015 65.6187 294.516 65.32 289.738 65.32C284.959 65.32 281.418 65.6187 279.114 66.216C276.895 66.728 275.316 67.88 274.378 69.672C273.439 71.3787 272.97 74.152 272.97 77.992V103.08C272.97 105.896 273.268 108.115 273.866 109.736C274.548 111.272 275.658 112.381 277.194 113.064C278.73 113.832 280.308 114.301 281.93 114.472C283.551 114.643 286.154 114.728 289.738 114.728Z" fill="#021B41"/>
<path d="M363.896 122.28C359.288 122.28 355.576 122.024 352.76 121.512C350.029 121.085 347.298 120.232 344.568 118.952C339.021 116.307 336.248 110.248 336.248 100.776V31.4H347.768V57.256C347.682 59.4747 347.64 61.9494 347.64 64.68C348.066 62.7174 349.858 61.0534 353.016 59.688C356.258 58.408 360.952 57.768 367.096 57.768C384.162 57.768 392.696 63.6134 392.696 75.304V100.776C392.696 104.445 392.141 107.645 391.032 110.376C390.008 113.107 388.642 115.24 386.936 116.776C385.4 118.227 383.266 119.379 380.536 120.232C377.89 121.085 375.245 121.64 372.6 121.896C370.21 122.152 367.309 122.28 363.896 122.28ZM364.152 114.728C368.589 114.728 371.96 114.429 374.264 113.832C376.653 113.149 378.36 111.955 379.384 110.248C380.408 108.541 380.92 105.939 380.92 102.44V78.12C380.92 74.6214 380.408 72.0187 379.384 70.312C378.36 68.52 376.653 67.368 374.264 66.856C371.96 66.2587 368.546 65.96 364.024 65.96C359.842 65.96 356.6 66.3014 354.296 66.984C351.992 67.6667 350.328 68.904 349.304 70.696C348.28 72.4027 347.768 74.8774 347.768 78.12V102.44C347.768 105.939 348.237 108.541 349.176 110.248C350.2 111.955 351.864 113.149 354.168 113.832C356.472 114.429 359.8 114.728 364.152 114.728Z" fill="#021B41"/>
<path d="M436.485 122.28C417.541 122.28 408.069 115.965 408.069 103.336V78.888C408.069 71.3787 410.202 66.0027 414.469 62.76C418.821 59.432 425.818 57.768 435.461 57.768C444.591 57.768 451.162 59.3467 455.173 62.504C459.269 65.6614 461.317 71.1227 461.317 78.888V92.584H419.717V101.928C419.717 106.195 421.21 109.267 424.197 111.144C427.183 113.021 431.791 113.96 438.021 113.96C443.909 113.96 450.863 112.936 458.885 110.888V119.72C451.034 121.427 443.567 122.28 436.485 122.28ZM449.797 85.032V75.304C449.797 71.5494 448.645 68.9894 446.341 67.624C444.122 66.1734 440.282 65.448 434.821 65.448C429.53 65.448 425.69 66.1734 423.301 67.624C420.911 68.9894 419.717 71.5494 419.717 75.304V85.032H449.797Z" fill="#021B41"/>
<path d="M479.641 37.928H512.665C535.961 37.928 547.609 45.864 547.609 61.736V98.472C547.609 113.491 536.003 121 512.793 121H479.641V37.928ZM511.897 112.552C527.769 112.552 535.705 107.773 535.705 98.216V61.608C535.705 58.536 535.065 55.9334 533.785 53.8C532.505 51.6667 530.713 50.088 528.409 49.064C526.105 48.1254 523.715 47.4854 521.241 47.144C518.766 46.7174 515.865 46.504 512.537 46.504H492.057V112.552H511.897Z" fill="#021B41"/>
<path d="M565.748 36.648H577.268V48.68H565.748V36.648ZM565.748 59.048H577.268V121H565.748V59.048Z" fill="#021B41"/>
<path d="M620.672 149.16C612.224 149.16 605.098 148.691 599.296 147.752V139.56C609.536 140.755 617.002 141.352 621.696 141.352C627.584 141.352 631.85 140.413 634.496 138.536C637.226 136.659 638.592 133.544 638.592 129.192V114.344C638.421 117.075 636.544 119.08 632.96 120.36C629.461 121.64 625.024 122.28 619.648 122.28C613.248 122.28 608.256 121.683 604.672 120.488C601.173 119.293 598.656 117.331 597.12 114.6C595.669 111.869 594.944 108.157 594.944 103.464V78.248C594.944 70.9094 596.906 65.6614 600.832 62.504C604.842 59.3467 611.37 57.768 620.416 57.768C631.168 57.768 637.482 60.2 639.36 65.064V59.048H650.112V126.888C650.112 132.605 649.045 137.085 646.912 140.328C644.778 143.571 641.578 145.832 637.312 147.112C633.045 148.477 627.498 149.16 620.672 149.16ZM622.08 114.6C628.138 114.6 632.405 113.875 634.88 112.424C637.354 110.973 638.592 108.243 638.592 104.232V76.2C638.592 73.384 638.122 71.2507 637.184 69.8C636.33 68.3494 634.709 67.3254 632.32 66.728C629.93 66.0454 626.432 65.704 621.824 65.704C617.472 65.704 614.186 66.0027 611.968 66.6C609.834 67.1974 608.341 68.264 607.488 69.8C606.72 71.2507 606.336 73.384 606.336 76.2V104.232C606.336 107.133 606.762 109.309 607.616 110.76C608.469 112.211 610.005 113.235 612.224 113.832C614.442 114.344 617.728 114.6 622.08 114.6Z" fill="#021B41"/>
<path d="M670.123 36.648H681.643V48.68H670.123V36.648ZM670.123 59.048H681.643V121H670.123V59.048Z" fill="#021B41"/>
<path d="M727.607 122.28C722.316 122.28 718.177 121.725 715.191 120.616C712.204 119.421 710.028 117.459 708.663 114.728C707.383 111.912 706.743 107.987 706.743 102.952V66.6H692.919V59.048H706.743V39.848H718.391V59.048H740.535V66.6H718.391V103.592C718.391 106.664 718.732 108.968 719.415 110.504C720.183 112.04 721.463 113.149 723.255 113.832C725.132 114.429 727.82 114.728 731.319 114.728C732.428 114.728 735.5 114.387 740.535 113.704V121.256C736.183 121.939 731.873 122.28 727.607 122.28Z" fill="#021B41"/>
<path d="M772.195 122.28C766.307 122.28 761.741 121.725 758.499 120.616C755.341 119.507 753.037 117.544 751.587 114.728C750.221 111.912 749.539 107.859 749.539 102.568C749.539 97.8747 750.179 94.248 751.459 91.688C752.824 89.0427 755.085 87.1654 758.243 86.056C761.485 84.9467 766.051 84.392 771.939 84.392H790.499V74.536C790.499 72.232 790.029 70.4827 789.091 69.288C788.237 68.008 786.744 67.112 784.611 66.6C782.563 66.088 779.533 65.832 775.523 65.832C769.123 65.832 762.04 66.344 754.275 67.368V58.92C762.723 58.152 770.36 57.768 777.187 57.768C784.355 57.768 789.645 58.3227 793.059 59.432C796.472 60.456 798.819 62.2907 800.099 64.936C801.379 67.5814 802.019 71.6774 802.019 77.224V121H790.883V115.112C789.944 119.891 783.715 122.28 772.195 122.28ZM774.115 114.728C778.296 114.728 781.837 114.429 784.739 113.832C788.579 113.064 790.499 111.272 790.499 108.456V91.56H772.707C769.037 91.56 766.392 91.8587 764.771 92.456C763.149 92.968 762.083 93.992 761.571 95.528C761.059 97.064 760.803 99.5387 760.803 102.952C760.803 106.024 761.101 108.413 761.699 110.12C762.296 111.741 763.363 112.936 764.899 113.704C766.435 114.387 768.739 114.728 771.811 114.728H774.115Z" fill="#021B41"/>
<path d="M821.998 31.4H833.518V121H821.998V31.4Z" fill="#021B41"/>
<defs>
<linearGradient id="paint0_linear_598_3541" x1="0" y1="0" x2="112" y2="150" gradientUnits="userSpaceOnUse">
<stop offset="0.0625" stop-color="#00D1A9"/>
<stop offset="1" stop-color="#0466D1"/>
</linearGradient>
<linearGradient id="paint1_linear_598_3541" x1="0" y1="0" x2="112" y2="150" gradientUnits="userSpaceOnUse">
<stop offset="0.0625" stop-color="#00D1A9"/>
<stop offset="1" stop-color="#0466D1"/>
</linearGradient>
<linearGradient id="paint2_linear_598_3541" x1="0" y1="0" x2="112" y2="150" gradientUnits="userSpaceOnUse">
<stop offset="0.0625" stop-color="#00D1A9"/>
<stop offset="1" stop-color="#0466D1"/>
</linearGradient>
<linearGradient id="paint3_linear_598_3541" x1="0" y1="0" x2="112" y2="150" gradientUnits="userSpaceOnUse">
<stop offset="0.0625" stop-color="#00D1A9"/>
<stop offset="1" stop-color="#0466D1"/>
</linearGradient>
<linearGradient id="paint4_linear_598_3541" x1="0" y1="0" x2="112" y2="150" gradientUnits="userSpaceOnUse">
<stop offset="0.0625" stop-color="#00D1A9"/>
<stop offset="1" stop-color="#0466D1"/>
</linearGradient>
<linearGradient id="paint5_linear_598_3541" x1="0" y1="0" x2="112" y2="150" gradientUnits="userSpaceOnUse">
<stop offset="0.0625" stop-color="#00D1A9"/>
<stop offset="1" stop-color="#0466D1"/>
</linearGradient>
<linearGradient id="paint6_linear_598_3541" x1="0" y1="0" x2="112" y2="150" gradientUnits="userSpaceOnUse">
<stop offset="0.0625" stop-color="#00D1A9"/>
<stop offset="1" stop-color="#0466D1"/>
</linearGradient>
<linearGradient id="paint7_linear_598_3541" x1="0" y1="0" x2="112" y2="150" gradientUnits="userSpaceOnUse">
<stop offset="0.0625" stop-color="#00D1A9"/>
<stop offset="1" stop-color="#0466D1"/>
</linearGradient>
<linearGradient id="paint8_linear_598_3541" x1="0" y1="0" x2="112" y2="150" gradientUnits="userSpaceOnUse">
<stop offset="0.0625" stop-color="#00D1A9"/>
<stop offset="1" stop-color="#0466D1"/>
</linearGradient>
<linearGradient id="paint9_linear_598_3541" x1="0" y1="0" x2="112" y2="150" gradientUnits="userSpaceOnUse">
<stop offset="0.0625" stop-color="#00D1A9"/>
<stop offset="1" stop-color="#0466D1"/>
</linearGradient>
<linearGradient id="paint10_linear_598_3541" x1="0" y1="0" x2="112" y2="150" gradientUnits="userSpaceOnUse">
<stop offset="0.0625" stop-color="#00D1A9"/>
<stop offset="1" stop-color="#0466D1"/>
</linearGradient>
<linearGradient id="paint11_linear_598_3541" x1="0" y1="0" x2="112" y2="150" gradientUnits="userSpaceOnUse">
<stop offset="0.0625" stop-color="#00D1A9"/>
<stop offset="1" stop-color="#0466D1"/>
</linearGradient>
<linearGradient id="paint12_linear_598_3541" x1="0" y1="0" x2="112" y2="150" gradientUnits="userSpaceOnUse">
<stop offset="0.0625" stop-color="#00D1A9"/>
<stop offset="1" stop-color="#0466D1"/>
</linearGradient>
<linearGradient id="paint13_linear_598_3541" x1="0" y1="0" x2="112" y2="150" gradientUnits="userSpaceOnUse">
<stop offset="0.0625" stop-color="#00D1A9"/>
<stop offset="1" stop-color="#0466D1"/>
</linearGradient>
<linearGradient id="paint14_linear_598_3541" x1="0" y1="0" x2="112" y2="150" gradientUnits="userSpaceOnUse">
<stop offset="0.0625" stop-color="#00D1A9"/>
<stop offset="1" stop-color="#0466D1"/>
</linearGradient>
<linearGradient id="paint15_linear_598_3541" x1="0" y1="0" x2="112" y2="150" gradientUnits="userSpaceOnUse">
<stop offset="0.0625" stop-color="#00D1A9"/>
<stop offset="1" stop-color="#0466D1"/>
</linearGradient>
<linearGradient id="paint16_linear_598_3541" x1="0" y1="0" x2="112" y2="150" gradientUnits="userSpaceOnUse">
<stop offset="0.0625" stop-color="#00D1A9"/>
<stop offset="1" stop-color="#0466D1"/>
</linearGradient>
<linearGradient id="paint17_linear_598_3541" x1="0" y1="0" x2="112" y2="150" gradientUnits="userSpaceOnUse">
<stop offset="0.0625" stop-color="#00D1A9"/>
<stop offset="1" stop-color="#0466D1"/>
</linearGradient>
<linearGradient id="paint18_linear_598_3541" x1="0" y1="0" x2="112" y2="150" gradientUnits="userSpaceOnUse">
<stop offset="0.0625" stop-color="#00D1A9"/>
<stop offset="1" stop-color="#0466D1"/>
</linearGradient>
<linearGradient id="paint19_linear_598_3541" x1="0" y1="0" x2="112" y2="150" gradientUnits="userSpaceOnUse">
<stop offset="0.0625" stop-color="#00D1A9"/>
<stop offset="1" stop-color="#0466D1"/>
</linearGradient>
<linearGradient id="paint20_linear_598_3541" x1="0" y1="0" x2="112" y2="150" gradientUnits="userSpaceOnUse">
<stop offset="0.0625" stop-color="#00D1A9"/>
<stop offset="1" stop-color="#0466D1"/>
</linearGradient>
<linearGradient id="paint21_linear_598_3541" x1="0" y1="0" x2="112" y2="150" gradientUnits="userSpaceOnUse">
<stop offset="0.0625" stop-color="#00D1A9"/>
<stop offset="1" stop-color="#0466D1"/>
</linearGradient>
<linearGradient id="paint22_linear_598_3541" x1="0" y1="0" x2="112" y2="150" gradientUnits="userSpaceOnUse">
<stop offset="0.0625" stop-color="#00D1A9"/>
<stop offset="1" stop-color="#0466D1"/>
</linearGradient>
<linearGradient id="paint23_linear_598_3541" x1="0" y1="0" x2="112" y2="150" gradientUnits="userSpaceOnUse">
<stop offset="0.0625" stop-color="#00D1A9"/>
<stop offset="1" stop-color="#0466D1"/>
</linearGradient>
<linearGradient id="paint24_linear_598_3541" x1="0" y1="0" x2="112" y2="150" gradientUnits="userSpaceOnUse">
<stop offset="0.0625" stop-color="#00D1A9"/>
<stop offset="1" stop-color="#0466D1"/>
</linearGradient>
<linearGradient id="paint25_linear_598_3541" x1="0" y1="0" x2="112" y2="150" gradientUnits="userSpaceOnUse">
<stop offset="0.0625" stop-color="#00D1A9"/>
<stop offset="1" stop-color="#0466D1"/>
</linearGradient>
<linearGradient id="paint26_linear_598_3541" x1="0" y1="0" x2="112" y2="150" gradientUnits="userSpaceOnUse">
<stop offset="0.0625" stop-color="#00D1A9"/>
<stop offset="1" stop-color="#0466D1"/>
</linearGradient>
<linearGradient id="paint27_linear_598_3541" x1="0" y1="0" x2="112" y2="150" gradientUnits="userSpaceOnUse">
<stop offset="0.0625" stop-color="#00D1A9"/>
<stop offset="1" stop-color="#0466D1"/>
</linearGradient>
<linearGradient id="paint28_linear_598_3541" x1="0" y1="0" x2="112" y2="150" gradientUnits="userSpaceOnUse">
<stop offset="0.0625" stop-color="#00D1A9"/>
<stop offset="1" stop-color="#0466D1"/>
</linearGradient>
<linearGradient id="paint29_linear_598_3541" x1="0" y1="0" x2="112" y2="150" gradientUnits="userSpaceOnUse">
<stop offset="0.0625" stop-color="#00D1A9"/>
<stop offset="1" stop-color="#0466D1"/>
</linearGradient>
<linearGradient id="paint30_linear_598_3541" x1="0" y1="0" x2="112" y2="150" gradientUnits="userSpaceOnUse">
<stop offset="0.0625" stop-color="#00D1A9"/>
<stop offset="1" stop-color="#0466D1"/>
</linearGradient>
<linearGradient id="paint31_linear_598_3541" x1="0" y1="0" x2="112" y2="150" gradientUnits="userSpaceOnUse">
<stop offset="0.0625" stop-color="#00D1A9"/>
<stop offset="1" stop-color="#0466D1"/>
</linearGradient>
<linearGradient id="paint32_linear_598_3541" x1="0" y1="0" x2="112" y2="150" gradientUnits="userSpaceOnUse">
<stop offset="0.0625" stop-color="#00D1A9"/>
<stop offset="1" stop-color="#0466D1"/>
</linearGradient>
<linearGradient id="paint33_linear_598_3541" x1="0" y1="0" x2="112" y2="150" gradientUnits="userSpaceOnUse">
<stop offset="0.0625" stop-color="#00D1A9"/>
<stop offset="1" stop-color="#0466D1"/>
</linearGradient>
<linearGradient id="paint34_linear_598_3541" x1="0" y1="0" x2="112" y2="150" gradientUnits="userSpaceOnUse">
<stop offset="0.0625" stop-color="#00D1A9"/>
<stop offset="1" stop-color="#0466D1"/>
</linearGradient>
<linearGradient id="paint35_linear_598_3541" x1="0" y1="0" x2="112" y2="150" gradientUnits="userSpaceOnUse">
<stop offset="0.0625" stop-color="#00D1A9"/>
<stop offset="1" stop-color="#0466D1"/>
</linearGradient>
<linearGradient id="paint36_linear_598_3541" x1="0" y1="0" x2="112" y2="150" gradientUnits="userSpaceOnUse">
<stop offset="0.0625" stop-color="#00D1A9"/>
<stop offset="1" stop-color="#0466D1"/>
</linearGradient>
<linearGradient id="paint37_linear_598_3541" x1="0" y1="0" x2="112" y2="150" gradientUnits="userSpaceOnUse">
<stop offset="0.0625" stop-color="#00D1A9"/>
<stop offset="1" stop-color="#0466D1"/>
</linearGradient>
<linearGradient id="paint38_linear_598_3541" x1="0" y1="0" x2="112" y2="150" gradientUnits="userSpaceOnUse">
<stop offset="0.0625" stop-color="#00D1A9"/>
<stop offset="1" stop-color="#0466D1"/>
</linearGradient>
<linearGradient id="paint39_linear_598_3541" x1="0" y1="0" x2="112" y2="150" gradientUnits="userSpaceOnUse">
<stop offset="0.0625" stop-color="#00D1A9"/>
<stop offset="1" stop-color="#0466D1"/>
</linearGradient>
<linearGradient id="paint40_linear_598_3541" x1="0" y1="0" x2="112" y2="150" gradientUnits="userSpaceOnUse">
<stop offset="0.0625" stop-color="#00D1A9"/>
<stop offset="1" stop-color="#0466D1"/>
</linearGradient>
<linearGradient id="paint41_linear_598_3541" x1="0" y1="0" x2="112" y2="150" gradientUnits="userSpaceOnUse">
<stop offset="0.0625" stop-color="#00D1A9"/>
<stop offset="1" stop-color="#0466D1"/>
</linearGradient>
<linearGradient id="paint42_linear_598_3541" x1="0" y1="0" x2="112" y2="150" gradientUnits="userSpaceOnUse">
<stop offset="0.0625" stop-color="#00D1A9"/>
<stop offset="1" stop-color="#0466D1"/>
</linearGradient>
<linearGradient id="paint43_linear_598_3541" x1="0" y1="0" x2="112" y2="150" gradientUnits="userSpaceOnUse">
<stop offset="0.0625" stop-color="#00D1A9"/>
<stop offset="1" stop-color="#0466D1"/>
</linearGradient>
<linearGradient id="paint44_linear_598_3541" x1="0" y1="0" x2="112" y2="150" gradientUnits="userSpaceOnUse">
<stop offset="0.0625" stop-color="#00D1A9"/>
<stop offset="1" stop-color="#0466D1"/>
</linearGradient>
<linearGradient id="paint45_linear_598_3541" x1="0" y1="0" x2="112" y2="150" gradientUnits="userSpaceOnUse">
<stop offset="0.0625" stop-color="#00D1A9"/>
<stop offset="1" stop-color="#0466D1"/>
</linearGradient>
<linearGradient id="paint46_linear_598_3541" x1="0" y1="0" x2="112" y2="150" gradientUnits="userSpaceOnUse">
<stop offset="0.0625" stop-color="#00D1A9"/>
<stop offset="1" stop-color="#0466D1"/>
</linearGradient>
<linearGradient id="paint47_linear_598_3541" x1="0" y1="0" x2="112" y2="150" gradientUnits="userSpaceOnUse">
<stop offset="0.0625" stop-color="#00D1A9"/>
<stop offset="1" stop-color="#0466D1"/>
</linearGradient>
<linearGradient id="paint48_linear_598_3541" x1="0" y1="0" x2="112" y2="150" gradientUnits="userSpaceOnUse">
<stop offset="0.0625" stop-color="#00D1A9"/>
<stop offset="1" stop-color="#0466D1"/>
</linearGradient>
<linearGradient id="paint49_linear_598_3541" x1="0" y1="0" x2="112" y2="150" gradientUnits="userSpaceOnUse">
<stop offset="0.0625" stop-color="#00D1A9"/>
<stop offset="1" stop-color="#0466D1"/>
</linearGradient>
<linearGradient id="paint50_linear_598_3541" x1="0" y1="0" x2="112" y2="150" gradientUnits="userSpaceOnUse">
<stop offset="0.0625" stop-color="#00D1A9"/>
<stop offset="1" stop-color="#0466D1"/>
</linearGradient>
<linearGradient id="paint51_linear_598_3541" x1="0" y1="0" x2="112" y2="150" gradientUnits="userSpaceOnUse">
<stop offset="0.0625" stop-color="#00D1A9"/>
<stop offset="1" stop-color="#0466D1"/>
</linearGradient>
<linearGradient id="paint52_linear_598_3541" x1="0" y1="0" x2="112" y2="150" gradientUnits="userSpaceOnUse">
<stop offset="0.0625" stop-color="#00D1A9"/>
<stop offset="1" stop-color="#0466D1"/>
</linearGradient>
<linearGradient id="paint53_linear_598_3541" x1="0" y1="0" x2="112" y2="150" gradientUnits="userSpaceOnUse">
<stop offset="0.0625" stop-color="#00D1A9"/>
<stop offset="1" stop-color="#0466D1"/>
</linearGradient>
<linearGradient id="paint54_linear_598_3541" x1="0" y1="0" x2="112" y2="150" gradientUnits="userSpaceOnUse">
<stop offset="0.0625" stop-color="#00D1A9"/>
<stop offset="1" stop-color="#0466D1"/>
</linearGradient>
<linearGradient id="paint55_linear_598_3541" x1="0" y1="0" x2="112" y2="150" gradientUnits="userSpaceOnUse">
<stop offset="0.0625" stop-color="#00D1A9"/>
<stop offset="1" stop-color="#0466D1"/>
</linearGradient>
<linearGradient id="paint56_linear_598_3541" x1="0" y1="0" x2="112" y2="150" gradientUnits="userSpaceOnUse">
<stop offset="0.0625" stop-color="#00D1A9"/>
<stop offset="1" stop-color="#0466D1"/>
</linearGradient>
</defs>
</svg>
