<svg width="256" height="262" viewBox="0 0 256 262" fill="none" xmlns="http://www.w3.org/2000/svg">
<g clip-path="url(#clip0_598_3544)">
<path d="M255.879 133.451C255.879 122.717 255.008 114.884 253.123 106.761H130.551V155.209H202.498C201.048 167.249 193.215 185.381 175.808 197.565L175.564 199.187L214.319 229.21L217.004 229.478C241.663 206.704 255.879 173.196 255.879 133.451Z" fill="#4285F4"/>
<path d="M130.551 261.1C165.799 261.1 195.39 249.495 217.004 229.478L175.808 197.565C164.784 205.253 149.988 210.62 130.551 210.62C96.0278 210.62 66.7268 187.847 56.2818 156.37L54.7508 156.5L14.4528 187.687L13.9258 189.152C35.3938 231.798 79.4908 261.1 130.551 261.1Z" fill="#34A853"/>
<path d="M56.281 156.37C53.525 148.247 51.93 139.543 51.93 130.55C51.93 121.556 53.525 112.853 56.136 104.73L56.063 103L15.26 71.312L13.925 71.947C5.077 89.644 0 109.517 0 130.55C0 151.583 5.077 171.455 13.925 189.152L56.281 156.37Z" fill="#FBBC05"/>
<path d="M130.551 50.479C155.065 50.479 171.601 61.068 181.03 69.917L217.874 33.943C195.246 12.91 165.799 0 130.551 0C79.4908 0 35.3938 29.301 13.9258 71.947L56.1368 104.73C66.7268 73.253 96.0278 50.479 130.551 50.479Z" fill="#EB4335"/>
</g>
<defs>
<clipPath id="clip0_598_3544">
<rect width="256" height="262" fill="white"/>
</clipPath>
</defs>
</svg>
