<svg width="16" height="16" viewBox="0 0 16 16" fill="none" xmlns="http://www.w3.org/2000/svg">
<path d="M7.9992 15.4074C3.90809 15.4074 0.591797 12.0911 0.591797 8C0.591797 3.90889 3.90809 0.59259 7.9992 0.59259C12.0903 0.59259 15.4066 3.90889 15.4066 8C15.4066 12.0911 12.0903 15.4074 7.9992 15.4074ZM7.9992 13.9259C9.57086 13.9259 11.0781 13.3016 12.1895 12.1903C13.3008 11.0789 13.9251 9.57165 13.9251 8C13.9251 6.42834 13.3008 4.92106 12.1895 3.80974C11.0781 2.69841 9.57086 2.07407 7.9992 2.07407C6.42755 2.07407 4.92027 2.69841 3.80894 3.80974C2.69762 4.92106 2.07328 6.42834 2.07328 8C2.07328 9.57165 2.69762 11.0789 3.80894 12.1903C4.92027 13.3016 6.42755 13.9259 7.9992 13.9259ZM7.9992 6.95259L10.094 4.85703L11.1422 5.90518L9.04661 8L11.1422 10.0948L10.094 11.143L7.9992 9.0474L5.90439 11.143L4.85624 10.0948L6.9518 8L4.85624 5.90518L5.90439 4.85703L7.9992 6.95259Z" fill="#DB0128"/>
</svg>
