<svg width="178" height="32" viewBox="0 0 178 32" fill="none" xmlns="http://www.w3.org/2000/svg">
<g clip-path="url(#clip0_106_5022)">
<path fill-rule="evenodd" clip-rule="evenodd" d="M11.62 14.7128C11.7405 14.7045 11.8449 14.7956 11.8532 14.9162C11.8889 15.4397 12.0318 17.3344 13.1844 19.397C14.3337 21.4534 16.4947 23.6917 20.5957 24.8969C20.7116 24.9308 20.778 25.0526 20.744 25.1684C20.7099 25.2845 20.5882 25.3508 20.4723 25.3167C16.2576 24.0783 14.0056 21.7634 12.8024 19.6105C11.6027 17.4637 11.4538 15.4923 11.4165 14.946C11.4083 14.8254 11.4994 14.721 11.62 14.7128Z" fill="url(#paint0_linear_106_5022)"/>
<path fill-rule="evenodd" clip-rule="evenodd" d="M5.76213 11.5028C5.39957 11.5028 5.10564 11.7968 5.10564 12.1594C5.10564 12.5219 5.39957 12.8158 5.76213 12.8158C6.12472 12.8158 6.41862 12.5219 6.41862 12.1594C6.41862 11.7968 6.12472 11.5028 5.76213 11.5028ZM4.66797 12.1594C4.66797 11.5551 5.15785 11.0652 5.76213 11.0652C6.36642 11.0652 6.8563 11.5551 6.8563 12.1594C6.8563 12.7636 6.36642 13.2535 5.76213 13.2535C5.15785 13.2535 4.66797 12.7636 4.66797 12.1594Z" fill="url(#paint1_linear_106_5022)"/>
<path fill-rule="evenodd" clip-rule="evenodd" d="M2.77189 6.25079C2.40933 6.25079 2.1154 6.54472 2.1154 6.90728C2.1154 7.26986 2.40933 7.56377 2.77189 7.56377C3.13447 7.56377 3.42838 7.26986 3.42838 6.90728C3.42838 6.54472 3.13447 6.25079 2.77189 6.25079ZM1.67773 6.90728C1.67773 6.30299 2.1676 5.81311 2.77189 5.81311C3.37617 5.81311 3.86605 6.30299 3.86605 6.90728C3.86605 7.51156 3.37617 8.00144 2.77189 8.00144C2.1676 8.00144 1.67773 7.51156 1.67773 6.90728Z" fill="url(#paint2_linear_106_5022)"/>
<path fill-rule="evenodd" clip-rule="evenodd" d="M4.30508 2.31169C3.94252 2.31169 3.64859 2.6056 3.64859 2.96818C3.64859 3.33076 3.94252 3.62467 4.30508 3.62467C4.66766 3.62467 4.96157 3.33076 4.96157 2.96818C4.96157 2.6056 4.66766 2.31169 4.30508 2.31169ZM3.21094 2.96818C3.21094 2.36389 3.70079 1.87402 4.30508 1.87402C4.90937 1.87402 5.39925 2.36389 5.39925 2.96818C5.39925 3.57247 4.90937 4.06235 4.30508 4.06235C3.70079 4.06235 3.21094 3.57247 3.21094 2.96818Z" fill="url(#paint3_linear_106_5022)"/>
<path fill-rule="evenodd" clip-rule="evenodd" d="M1.09416 15.9523C0.731586 15.9523 0.437664 16.2462 0.437664 16.6088C0.437664 16.9714 0.731586 17.2653 1.09416 17.2653C1.45673 17.2653 1.75065 16.9714 1.75065 16.6088C1.75065 16.2462 1.45673 15.9523 1.09416 15.9523ZM0 16.6088C0 16.0045 0.489871 15.5146 1.09416 15.5146C1.69844 15.5146 2.18831 16.0045 2.18831 16.6088C2.18831 17.2131 1.69844 17.703 1.09416 17.703C0.489871 17.703 0 17.2131 0 16.6088Z" fill="url(#paint4_linear_106_5022)"/>
<path fill-rule="evenodd" clip-rule="evenodd" d="M21.5181 12.9616C21.1554 12.9616 20.8615 13.2555 20.8615 13.6181C20.8615 13.9807 21.1554 14.2746 21.5181 14.2746C21.8805 14.2746 22.1745 13.9807 22.1745 13.6181C22.1745 13.2555 21.8805 12.9616 21.5181 12.9616ZM20.4238 13.6181C20.4238 13.0138 20.9137 12.524 21.5181 12.524C22.1222 12.524 22.6122 13.0138 22.6122 13.6181C22.6122 14.2224 22.1222 14.7123 21.5181 14.7123C20.9137 14.7123 20.4238 14.2224 20.4238 13.6181Z" fill="url(#paint5_linear_106_5022)"/>
<path fill-rule="evenodd" clip-rule="evenodd" d="M18.1625 12.5968C17.7999 12.5968 17.506 12.8908 17.506 13.2533C17.506 13.6159 17.7999 13.9098 18.1625 13.9098C18.5251 13.9098 18.819 13.6159 18.819 13.2533C18.819 12.8908 18.5251 12.5968 18.1625 12.5968ZM17.0684 13.2533C17.0684 12.649 17.5582 12.1592 18.1625 12.1592C18.7668 12.1592 19.2567 12.649 19.2567 13.2533C19.2567 13.8576 18.7668 14.3475 18.1625 14.3475C17.5582 14.3475 17.0684 13.8576 17.0684 13.2533Z" fill="url(#paint6_linear_106_5022)"/>
<path fill-rule="evenodd" clip-rule="evenodd" d="M19.6215 20.4748C19.2589 20.4748 18.965 20.7688 18.965 21.1313C18.965 21.494 19.2589 21.7877 19.6215 21.7877C19.9841 21.7877 20.278 21.494 20.278 21.1313C20.278 20.7688 19.9841 20.4748 19.6215 20.4748ZM18.5273 21.1313C18.5273 20.527 19.0172 20.0372 19.6215 20.0372C20.2258 20.0372 20.7157 20.527 20.7157 21.1313C20.7157 21.7357 20.2258 22.2255 19.6215 22.2255C19.0172 22.2255 18.5273 21.7357 18.5273 21.1313Z" fill="url(#paint7_linear_106_5022)"/>
<path fill-rule="evenodd" clip-rule="evenodd" d="M21.3911 24.8269C21.0285 24.8269 20.7345 25.1209 20.7345 25.4833C20.7345 25.846 21.0285 26.1398 21.3911 26.1398C21.7536 26.1398 22.0476 25.846 22.0476 25.4833C22.0476 25.1209 21.7536 24.8269 21.3911 24.8269ZM20.2969 25.4833C20.2969 24.8792 20.7868 24.3892 21.3911 24.3892C21.9953 24.3892 22.4851 24.8792 22.4851 25.4833C22.4851 26.0877 21.9953 26.5775 21.3911 26.5775C20.7868 26.5775 20.2969 26.0877 20.2969 25.4833Z" fill="url(#paint8_linear_106_5022)"/>
<path fill-rule="evenodd" clip-rule="evenodd" d="M11.5981 13.3993C11.2355 13.3993 10.9416 13.6932 10.9416 14.0558C10.9416 14.4183 11.2355 14.7123 11.5981 14.7123C11.9606 14.7123 12.2546 14.4183 12.2546 14.0558C12.2546 13.6932 11.9606 13.3993 11.5981 13.3993ZM10.5039 14.0558C10.5039 13.4515 10.9938 12.9616 11.5981 12.9616C12.2023 12.9616 12.6922 13.4515 12.6922 14.0558C12.6922 14.6601 12.2023 15.1499 11.5981 15.1499C10.9938 15.1499 10.5039 14.6601 10.5039 14.0558Z" fill="url(#paint9_linear_106_5022)"/>
<path fill-rule="evenodd" clip-rule="evenodd" d="M18.3242 13.9474C18.4445 13.9354 18.5517 14.0233 18.5636 14.1436C18.69 15.419 19.8619 18.2768 23.5797 19.2418C23.6968 19.2721 23.767 19.3916 23.7367 19.5085C23.7062 19.6255 23.5868 19.6957 23.4699 19.6654C19.5432 18.6463 18.2691 15.6102 18.128 14.1867C18.1161 14.0665 18.204 13.9593 18.3242 13.9474Z" fill="url(#paint10_linear_106_5022)"/>
<path fill-rule="evenodd" clip-rule="evenodd" d="M16.85 6.46966C16.4874 6.46966 16.1935 6.76357 16.1935 7.12615C16.1935 7.48871 16.4874 7.78264 16.85 7.78264C17.2126 7.78264 17.5065 7.48871 17.5065 7.12615C17.5065 6.76357 17.2126 6.46966 16.85 6.46966ZM15.7559 7.12615C15.7559 6.52186 16.2457 6.03198 16.85 6.03198C17.4543 6.03198 17.9442 6.52186 17.9442 7.12615C17.9442 7.73044 17.4543 8.22029 16.85 8.22029C16.2457 8.22029 15.7559 7.73044 15.7559 7.12615Z" fill="url(#paint11_linear_106_5022)"/>
<path fill-rule="evenodd" clip-rule="evenodd" d="M17.3989 7.54488C17.4899 7.46528 17.6281 7.4745 17.7077 7.56546C18.5483 8.5261 20.2264 11.4512 20.377 14.8133C20.3898 15.0992 20.4546 15.3593 20.6031 15.5607C21.1182 16.2592 22.1675 17.279 23.6536 17.6737C23.7703 17.7047 23.8398 17.8246 23.8089 17.9414C23.7778 18.0582 23.6581 18.1277 23.5412 18.0967C21.9286 17.6684 20.8032 16.5696 20.2508 15.8204C20.0315 15.523 19.9547 15.166 19.9398 14.8328C19.7942 11.5831 18.1628 8.75019 17.3784 7.85366C17.2988 7.76271 17.308 7.62447 17.3989 7.54488Z" fill="url(#paint12_linear_106_5022)"/>
<path fill-rule="evenodd" clip-rule="evenodd" d="M21.7491 14.2469C21.8652 14.213 21.9868 14.2795 22.0207 14.3954C22.0862 14.6192 22.2437 14.9628 22.4956 15.246C22.7456 15.5269 23.0735 15.7334 23.4885 15.7334C23.6092 15.7334 23.7071 15.8314 23.7071 15.9523C23.7071 16.0731 23.6092 16.1711 23.4885 16.1711C22.9112 16.1711 22.4732 15.8792 22.1688 15.537C21.8665 15.1972 21.6811 14.7931 21.6007 14.5184C21.5667 14.4024 21.6331 14.2808 21.7491 14.2469Z" fill="url(#paint13_linear_106_5022)"/>
<path fill-rule="evenodd" clip-rule="evenodd" d="M9.18985 21.9336C8.82729 21.9336 8.53336 22.2276 8.53336 22.5903C8.53336 22.9527 8.82729 23.2467 9.18985 23.2467C9.55243 23.2467 9.84636 22.9527 9.84636 22.5903C9.84636 22.2276 9.55243 21.9336 9.18985 21.9336ZM8.0957 22.5903C8.0957 21.9859 8.58558 21.4961 9.18985 21.4961C9.79414 21.4961 10.284 21.9859 10.284 22.5903C10.284 23.1944 9.79414 23.6843 9.18985 23.6843C8.58558 23.6843 8.0957 23.1944 8.0957 22.5903Z" fill="url(#paint14_linear_106_5022)"/>
<path fill-rule="evenodd" clip-rule="evenodd" d="M3.7211 27.5502C4.08368 27.5502 4.37761 27.2564 4.37761 26.8937C4.37761 26.5311 4.08368 26.2373 3.7211 26.2373C3.35854 26.2373 3.06461 26.5311 3.06461 26.8937C3.06461 27.2564 3.35854 27.5502 3.7211 27.5502ZM4.81526 26.8937C4.81526 27.4981 4.32539 27.9879 3.7211 27.9879C3.11681 27.9879 2.62695 27.4981 2.62695 26.8937C2.62695 26.2894 3.11681 25.7996 3.7211 25.7996C4.32539 25.7996 4.81526 26.2894 4.81526 26.8937Z" fill="url(#paint15_linear_106_5022)"/>
<path fill-rule="evenodd" clip-rule="evenodd" d="M6.9301 31.0516C7.29268 31.0516 7.58659 30.7577 7.58659 30.395C7.58659 30.0325 7.29268 29.7386 6.9301 29.7386C6.56752 29.7386 6.27361 30.0325 6.27361 30.395C6.27361 30.7577 6.56752 31.0516 6.9301 31.0516ZM8.02427 30.395C8.02427 30.9994 7.53439 31.4892 6.9301 31.4892C6.32581 31.4892 5.83594 30.9994 5.83594 30.395C5.83594 29.7908 6.32581 29.301 6.9301 29.301C7.53439 29.301 8.02427 29.7908 8.02427 30.395Z" fill="url(#paint16_linear_106_5022)"/>
<path fill-rule="evenodd" clip-rule="evenodd" d="M5.61719 27.1127V13.1074H6.05484V27.1127H5.61719Z" fill="url(#paint17_linear_106_5022)"/>
<path fill-rule="evenodd" clip-rule="evenodd" d="M4.66797 26.8208H6.05391V27.2586H4.66797V26.8208Z" fill="url(#paint18_linear_106_5022)"/>
<path fill-rule="evenodd" clip-rule="evenodd" d="M7.87695 30.2493H11.5971V30.6868H7.87695V30.2493Z" fill="url(#paint19_linear_106_5022)"/>
<path fill-rule="evenodd" clip-rule="evenodd" d="M1.9707 16.4629H2.70014V16.9005H1.9707V16.4629Z" fill="url(#paint20_linear_106_5022)"/>
<path fill-rule="evenodd" clip-rule="evenodd" d="M1.24023 13.9099H3.79328V14.3476H1.24023V13.9099Z" fill="url(#paint21_linear_106_5022)"/>
<path fill-rule="evenodd" clip-rule="evenodd" d="M3.86719 12.0134H4.81545V12.4511H3.86719V12.0134Z" fill="url(#paint22_linear_106_5022)"/>
<path fill-rule="evenodd" clip-rule="evenodd" d="M6.71094 12.0134H7.6592V12.4511H6.71094V12.0134Z" fill="url(#paint23_linear_106_5022)"/>
<path fill-rule="evenodd" clip-rule="evenodd" d="M2.18945 8.65796H11.818V9.09561H2.18945V8.65796Z" fill="url(#paint24_linear_106_5022)"/>
<path fill-rule="evenodd" clip-rule="evenodd" d="M7.87695 27.1128H11.8159V26.675H7.87695V27.1128Z" fill="url(#paint25_linear_106_5022)"/>
<path fill-rule="evenodd" clip-rule="evenodd" d="M3.79297 6.83423H7.73193V7.27188H3.79297V6.83423Z" fill="url(#paint26_linear_106_5022)"/>
<path fill-rule="evenodd" clip-rule="evenodd" d="M4.1582 5.37549H5.8359V5.81314H4.1582V5.37549Z" fill="url(#paint27_linear_106_5022)"/>
<path fill-rule="evenodd" clip-rule="evenodd" d="M2.44999 8.76581C2.51126 8.86999 2.47648 9.00411 2.37231 9.06538C2.25643 9.13354 1.89665 9.5345 1.89665 10.4815C1.89665 10.6024 1.79868 10.7004 1.67782 10.7004C1.55696 10.7004 1.45898 10.6024 1.45898 10.4815C1.45898 9.44447 1.85295 8.86312 2.15042 8.68814C2.25459 8.62687 2.38872 8.66164 2.44999 8.76581Z" fill="url(#paint28_linear_106_5022)"/>
<path fill-rule="evenodd" clip-rule="evenodd" d="M8.13944 27.0048C8.2007 26.9007 8.16593 26.7665 8.06176 26.7053C8.01647 26.6786 7.89466 26.5566 7.78268 26.2952C7.67505 26.0439 7.58609 25.6845 7.58609 25.2162C7.58609 25.0952 7.48813 24.9973 7.36725 24.9973C7.2464 24.9973 7.14844 25.0952 7.14844 25.2162C7.14844 25.7399 7.24792 26.1585 7.3804 26.4676C7.50852 26.7667 7.67849 26.9875 7.83985 27.0824C7.94404 27.1437 8.07814 27.1089 8.13944 27.0048Z" fill="url(#paint29_linear_106_5022)"/>
<path fill-rule="evenodd" clip-rule="evenodd" d="M1.45898 10.2627H11.817V10.7003H1.45898V10.2627Z" fill="url(#paint30_linear_106_5022)"/>
<path fill-rule="evenodd" clip-rule="evenodd" d="M7.14844 25.4351H11.8168V24.9973H7.14844V25.4351Z" fill="url(#paint31_linear_106_5022)"/>
<path fill-rule="evenodd" clip-rule="evenodd" d="M11.6085 25.0794C11.684 24.9851 11.8217 24.9698 11.9161 25.0453C12.1757 25.2528 13.2028 25.9389 14.5684 26.7174C15.9311 27.4941 17.6144 28.3532 19.1837 28.9124C19.2975 28.9531 19.3569 29.0781 19.3164 29.192C19.2758 29.306 19.1506 29.3653 19.0368 29.3247C17.433 28.7532 15.7245 27.88 14.3517 27.0975C12.9819 26.3167 11.9302 25.617 11.6427 25.387C11.5483 25.3115 11.533 25.1737 11.6085 25.0794Z" fill="url(#paint32_linear_106_5022)"/>
<path fill-rule="evenodd" clip-rule="evenodd" d="M11.6456 26.7571C11.7211 26.6628 11.8588 26.6475 11.9532 26.723C12.4967 27.1578 14.8428 28.9973 17.6863 29.9693C17.8006 30.0083 17.8617 30.1327 17.8226 30.247C17.7835 30.3614 17.6591 30.4224 17.5448 30.3834C14.6257 29.3858 12.2304 27.5053 11.6798 27.0647C11.5854 26.9892 11.5701 26.8516 11.6456 26.7571Z" fill="url(#paint33_linear_106_5022)"/>
<path fill-rule="evenodd" clip-rule="evenodd" d="M13.1896 10.9493C12.6989 10.7359 12.1828 10.6833 11.8651 10.7C11.7444 10.7064 11.6414 10.6137 11.6351 10.493C11.6287 10.3723 11.7214 10.2693 11.8421 10.263C12.2174 10.2432 12.8026 10.3037 13.3642 10.548C13.9297 10.794 14.4839 11.233 14.7578 11.9739C14.9126 12.393 15.0095 12.9919 15.1174 13.6589C15.124 13.6995 15.1306 13.7403 15.1372 13.7814C15.2552 14.5086 15.3937 15.3313 15.6336 16.1653C16.1128 17.8315 16.9896 19.5185 18.8868 20.5373C18.9933 20.5945 19.0332 20.7272 18.976 20.8336C18.9189 20.9401 18.7862 20.9801 18.6797 20.9229C16.6379 19.8264 15.7094 18.012 15.213 16.2863C14.9651 15.4244 14.8231 14.5785 14.7052 13.8514C14.7001 13.8201 14.6951 13.789 14.6901 13.7581C14.5775 13.063 14.4868 12.5032 14.3472 12.1256C14.1251 11.5244 13.6763 11.161 13.1896 10.9493Z" fill="url(#paint34_linear_106_5022)"/>
<path fill-rule="evenodd" clip-rule="evenodd" d="M9.04492 11.9404H11.8168V12.3781H9.04492V11.9404Z" fill="url(#paint35_linear_106_5022)"/>
<path fill-rule="evenodd" clip-rule="evenodd" d="M9.04492 13.8369H10.7956V14.2746H9.04492V13.8369Z" fill="url(#paint36_linear_106_5022)"/>
<path fill-rule="evenodd" clip-rule="evenodd" d="M11.5624 12.131C11.578 12.0111 11.6879 11.9267 11.8077 11.9423C12.4795 12.0299 13.8942 12.8664 14.0765 15.2059C14.1856 16.606 14.384 18.3417 15.484 19.9453C16.58 21.5433 18.5951 23.042 22.4048 23.9088C22.5227 23.9354 22.5965 24.0528 22.5697 24.1705C22.5428 24.2885 22.4257 24.3623 22.3077 24.3354C18.4218 23.4514 16.2974 21.9049 15.123 20.1929C13.9527 18.4867 13.7499 16.6482 13.6401 15.2399C13.4723 13.0861 12.1978 12.4345 11.7511 12.3763C11.6313 12.3606 11.5468 12.2508 11.5624 12.131Z" fill="url(#paint37_linear_106_5022)"/>
<path fill-rule="evenodd" clip-rule="evenodd" d="M11.4531 13.1805V10.2627H11.8908V13.1805H11.4531Z" fill="url(#paint38_linear_106_5022)"/>
<path fill-rule="evenodd" clip-rule="evenodd" d="M11.5989 8.85337C11.6119 8.7332 11.7197 8.64624 11.8399 8.65917C12.6017 8.74101 13.8038 9.05631 14.7958 9.73968C15.7957 10.4285 16.5962 11.5047 16.4844 13.0865C16.2391 16.5558 19.1913 19.8377 23.3857 20.6981C23.5041 20.7224 23.5802 20.8381 23.5561 20.9565C23.5318 21.0748 23.4159 21.1511 23.2978 21.1268C18.9576 20.2366 15.7825 16.8077 16.0478 13.0556C16.1459 11.6687 15.4571 10.7267 14.5475 10.1001C13.63 9.468 12.5024 9.17053 11.7931 9.09433C11.673 9.0814 11.586 8.97354 11.5989 8.85337Z" fill="url(#paint39_linear_106_5022)"/>
<path fill-rule="evenodd" clip-rule="evenodd" d="M7.6582 22.4443H8.31472V22.8819H7.6582V22.4443Z" fill="url(#paint40_linear_106_5022)"/>
<path fill-rule="evenodd" clip-rule="evenodd" d="M9.26367 20.256H11.5249V20.6937H9.26367V20.256Z" fill="url(#paint41_linear_106_5022)"/>
<path fill-rule="evenodd" clip-rule="evenodd" d="M9.91992 22.5173H11.5247V22.9549H9.91992V22.5173Z" fill="url(#paint42_linear_106_5022)"/>
<path fill-rule="evenodd" clip-rule="evenodd" d="M11.4084 20.2898C11.5105 20.2252 11.6457 20.2555 11.7104 20.3576C11.7293 20.3876 11.7555 20.436 11.7845 20.4897C11.8041 20.5259 11.8249 20.5646 11.8457 20.6015C11.9047 20.7062 11.9857 20.8408 12.1021 21.0043C12.3349 21.3314 12.7127 21.7795 13.3433 22.3346C14.6057 23.4461 16.8794 24.9855 21.0246 26.84C21.1349 26.8893 21.1844 27.0188 21.135 27.1291C21.0857 27.2394 20.9562 27.2889 20.8459 27.2394C16.6755 25.3738 14.3599 23.8128 13.054 22.6632C12.4004 22.0876 11.9994 21.6148 11.7456 21.2581C11.6186 21.0797 11.5294 20.9317 11.4644 20.8163C11.429 20.7535 11.4048 20.7081 11.3863 20.6734C11.367 20.6373 11.3539 20.6127 11.3406 20.5918C11.276 20.4897 11.3063 20.3545 11.4084 20.2898Z" fill="url(#paint43_linear_106_5022)"/>
<path fill-rule="evenodd" clip-rule="evenodd" d="M11.4084 22.5513C11.5105 22.4867 11.6457 22.517 11.7104 22.6192C11.7265 22.6445 11.7933 22.7271 11.9238 22.8662C12.0491 22.9997 12.2227 23.1742 12.4407 23.379C12.8766 23.7886 13.4876 24.3164 14.241 24.8764C15.7492 25.9975 17.8196 27.2404 20.1934 27.9237C20.3095 27.9572 20.3766 28.0784 20.3432 28.1946C20.3097 28.3107 20.1885 28.3777 20.0723 28.3442C17.6318 27.6417 15.5141 26.3681 13.9799 25.2278C13.2121 24.6571 12.5884 24.1182 12.141 23.698C11.9174 23.4878 11.7372 23.3069 11.6046 23.1657C11.4773 23.03 11.3822 22.9189 11.3406 22.8532C11.276 22.7512 11.3063 22.616 11.4084 22.5513Z" fill="url(#paint44_linear_106_5022)"/>
<path fill-rule="evenodd" clip-rule="evenodd" d="M11.4807 30.2833C11.5828 30.2187 11.718 30.249 11.7826 30.3509C11.8721 30.4924 12.1212 30.7172 12.4733 30.9575C12.8166 31.1919 13.2287 31.421 13.6136 31.5787C13.7255 31.6243 13.7791 31.7521 13.7333 31.8639C13.6876 31.9759 13.5598 32.0295 13.4479 31.9836C13.0305 31.8129 12.5915 31.568 12.2266 31.3191C11.8707 31.0761 11.5544 30.8085 11.4129 30.5852C11.3482 30.4832 11.3786 30.348 11.4807 30.2833Z" fill="url(#paint45_linear_106_5022)"/>
<path fill-rule="evenodd" clip-rule="evenodd" d="M3.86736 12.0134V25.9457H3.42969V12.0134H3.86736Z" fill="url(#paint46_linear_106_5022)"/>
<path fill-rule="evenodd" clip-rule="evenodd" d="M2.69937 16.4629V25.9456H2.26172V16.4629H2.69937Z" fill="url(#paint47_linear_106_5022)"/>
<path fill-rule="evenodd" clip-rule="evenodd" d="M2.32018 25.7601C2.40242 25.6716 2.5409 25.6664 2.62945 25.7486L3.14006 26.2228C3.22862 26.305 3.23376 26.4434 3.15152 26.5322C3.06928 26.6207 2.93083 26.6258 2.84225 26.5435L2.33164 26.0694C2.24308 25.9871 2.23796 25.8486 2.32018 25.7601Z" fill="url(#paint48_linear_106_5022)"/>
<path fill-rule="evenodd" clip-rule="evenodd" d="M1.2404 13.9099V15.8794H0.802734V13.9099H1.2404Z" fill="url(#paint49_linear_106_5022)"/>
<path fill-rule="evenodd" clip-rule="evenodd" d="M4.44939 3.69775V5.81312H4.01172V3.69775H4.44939Z" fill="url(#paint50_linear_106_5022)"/>
<path fill-rule="evenodd" clip-rule="evenodd" d="M8.02361 2.76983V22.8819H7.58594V2.43858L7.74457 2.39321C10.0942 1.72099 13.7018 1.47875 16.888 2.95485C20.0928 4.43954 22.8307 7.64407 23.45 13.7785C23.4622 13.8987 23.3747 14.006 23.2544 14.0182C23.1341 14.0303 23.0268 13.9427 23.0146 13.8225C22.4085 7.81902 19.7487 4.76253 16.704 3.35197C13.7109 1.96529 10.307 2.15146 8.02361 2.76983Z" fill="url(#paint51_linear_106_5022)"/>
<path fill-rule="evenodd" clip-rule="evenodd" d="M9.41031 4.23264V21.8607H8.97266V3.89399L9.13551 3.8509C10.9401 3.37342 13.7232 3.25414 16.2167 4.42137C18.7263 5.59616 20.9102 8.05954 21.5171 12.6778L21.5457 12.8948L21.1117 12.9518L21.0832 12.7348C20.4938 8.24966 18.3923 5.92307 16.0311 4.81775C13.727 3.73918 11.1451 3.80975 9.41031 4.23264Z" fill="url(#paint52_linear_106_5022)"/>
<path fill-rule="evenodd" clip-rule="evenodd" d="M10.7969 7.44614V5.22314L11.022 5.22965C11.6629 5.24813 12.6878 5.32738 13.6874 5.50558C14.1873 5.59471 14.685 5.70927 15.1271 5.855C15.5664 5.99976 15.9649 6.17977 16.2561 6.40629L16.4289 6.54063L16.1602 6.8861L15.9874 6.75174C15.7534 6.56977 15.4092 6.40877 14.9901 6.27065C14.5739 6.1335 14.0978 6.02332 13.6106 5.93645C12.7459 5.78231 11.859 5.70387 11.2345 5.67556V6.95801C12.2185 6.88563 13.625 7.04697 14.9442 7.74703C16.3863 8.5123 17.7136 9.91646 18.268 12.329L18.3171 12.5423L17.8905 12.6403L17.8415 12.4271C17.3164 10.1421 16.0725 8.84124 14.739 8.13363C13.3967 7.42131 11.9531 7.30532 11.0422 7.41628L10.7969 7.44614Z" fill="url(#paint53_linear_106_5022)"/>
<path fill-rule="evenodd" clip-rule="evenodd" d="M5.54297 1.15391L5.67901 1.0983C7.15157 0.496403 9.66928 -0.122571 12.3875 0.0209672C15.109 0.164679 18.0479 1.0744 20.3291 3.54942C20.411 3.63829 20.4054 3.77675 20.3165 3.85865C20.2277 3.94057 20.0892 3.93491 20.0073 3.84604C17.8244 1.47761 15.0067 0.597549 12.3645 0.45802C9.80146 0.322682 7.41883 0.885649 5.98064 1.449V11.2109H5.54297V1.15391Z" fill="url(#paint54_linear_106_5022)"/>
<path fill-rule="evenodd" clip-rule="evenodd" d="M3.815 27.6257C3.91435 27.5568 4.05067 27.5815 4.11947 27.681L4.55842 28.315C4.65378 28.4528 4.81069 28.5349 4.97824 28.5349H11.6487C11.7622 28.5349 11.887 28.5558 12.004 28.6194C12.1425 28.6945 12.3537 28.8219 12.622 28.9836C13.396 29.4503 14.6449 30.2032 15.9929 30.8159C16.1029 30.8658 16.1516 30.9955 16.1015 31.1056C16.0515 31.2157 15.9218 31.2643 15.8118 31.2144C14.4352 30.5887 13.1274 29.8 12.3594 29.3371C12.1079 29.1854 11.9144 29.0687 11.7952 29.004C11.7584 28.984 11.7102 28.9727 11.6487 28.9727H4.97824C4.66707 28.9727 4.3757 28.8199 4.19857 28.5642L3.75964 27.9301C3.69084 27.8307 3.71563 27.6944 3.815 27.6257Z" fill="url(#paint55_linear_106_5022)"/>
<path fill-rule="evenodd" clip-rule="evenodd" d="M20.2085 21.4421C20.2786 21.3436 20.4152 21.3206 20.5137 21.3907C20.546 21.4137 20.5767 21.4355 20.606 21.4564C20.8681 21.6439 21.0181 21.751 21.2651 21.8577C21.5465 21.9793 21.9553 22.1002 22.774 22.3048C22.8914 22.3343 22.9626 22.4531 22.9334 22.5702C22.904 22.6876 22.7851 22.7588 22.668 22.7296C21.8529 22.5258 21.4106 22.3974 21.0914 22.2594C20.7997 22.1333 20.6124 21.9993 20.3541 21.8144C20.3238 21.7928 20.2925 21.7704 20.2599 21.7472C20.1615 21.6772 20.1385 21.5405 20.2085 21.4421Z" fill="url(#paint56_linear_106_5022)"/>
<path d="M31.2305 8.09131H37.0195C37.8387 8.09131 38.494 8.10953 38.9856 8.14592C39.4952 8.18234 40.0322 8.26426 40.5967 8.39168C41.1791 8.51913 41.6433 8.71027 41.9893 8.96512C42.3532 9.21999 42.6628 9.56587 42.9177 10.0028C43.1543 10.4215 43.2727 10.9494 43.2727 11.5866V15.273C43.2727 16.7475 42.6993 17.8125 41.5524 18.4678C40.4236 19.105 38.7488 19.4236 36.528 19.4236H33.8792V25.8133H31.2305V8.09131ZM36.8829 17.7579C38.0298 17.7579 38.9491 17.5485 39.6409 17.1298C40.3325 16.7111 40.6786 16.0467 40.6786 15.1364V11.9142C40.6786 11.4227 40.551 11.0222 40.2963 10.7127C40.0413 10.3851 39.6772 10.1575 39.204 10.0301C38.7488 9.92085 38.3665 9.84804 38.0571 9.81163C37.7476 9.77523 37.338 9.75701 36.8283 9.75701H33.8519V17.7579H36.8829Z" fill="white"/>
<path d="M46.6406 12.5968H48.9617V14.754C48.9617 14.3353 49.1437 13.9439 49.5078 13.5798C49.8718 13.1975 50.336 12.8972 50.9005 12.6787C51.4647 12.4421 52.02 12.3237 52.5662 12.3237H53.7677V14.4263H52.4023C51.2371 14.4263 50.3906 14.5811 49.8628 14.8906C49.3529 15.1818 49.0982 15.7189 49.0982 16.5016V25.8132H46.6406V12.5968Z" fill="white"/>
<path d="M61.8101 26.0863C60.6449 26.0863 59.7711 26.0409 59.1887 25.9498C58.606 25.877 58.0234 25.704 57.441 25.4309C56.8403 25.1579 56.4034 24.721 56.1303 24.1202C55.8572 23.5013 55.7207 22.673 55.7207 21.6353V17.0478C55.7207 16.2286 55.8208 15.5095 56.0211 14.8906C56.2212 14.2716 56.4853 13.7892 56.813 13.4433C57.086 13.1338 57.4956 12.8972 58.0418 12.7333C58.606 12.5513 59.1795 12.433 59.7621 12.3783C60.4174 12.3419 61.1001 12.3237 61.8101 12.3237C62.7567 12.3237 63.4666 12.351 63.94 12.4057C64.4315 12.4421 64.9504 12.5331 65.4965 12.6787C66.0608 12.8426 66.4977 13.0883 66.8072 13.416C67.1165 13.7437 67.3806 14.217 67.5991 14.8359C67.7992 15.4731 67.8995 16.2104 67.8995 17.0478V21.6353C67.8995 23.1826 67.5445 24.3114 66.8345 25.0213C66.5431 25.3125 66.1245 25.5402 65.5784 25.704C65.0323 25.8678 64.4678 25.9771 63.8854 26.0317C63.1936 26.0682 62.5017 26.0863 61.8101 26.0863ZM61.8101 24.4752C62.5747 24.4752 63.1298 24.4571 63.4758 24.4206C63.8216 24.3841 64.1585 24.2841 64.4861 24.1202C64.8138 23.9745 65.0412 23.7379 65.1688 23.4102C65.3143 23.0644 65.3873 22.591 65.3873 21.9903V16.6382C65.3873 15.819 65.287 15.2273 65.0869 14.8632C64.8866 14.481 64.5408 14.2352 64.0492 14.126C63.5759 13.9985 62.8294 13.9348 61.8101 13.9348C60.7906 13.9348 60.0352 13.9985 59.5436 14.126C59.0703 14.2352 58.7334 14.481 58.5333 14.8632C58.333 15.2273 58.2329 15.819 58.2329 16.6382V21.9903C58.2329 22.591 58.2965 23.0644 58.4241 23.4102C58.5696 23.7379 58.8064 23.9745 59.134 24.1202C59.4617 24.2841 59.7984 24.3841 60.1444 24.4206C60.4902 24.4571 61.0455 24.4752 61.8101 24.4752Z" fill="white"/>
<path d="M77.6307 26.0864C76.6476 26.0864 75.8557 26.0318 75.255 25.9226C74.6724 25.8315 74.0898 25.6495 73.5074 25.3764C72.324 24.8122 71.7324 23.5196 71.7324 21.4989V6.69867H74.19V12.2146C74.1717 12.6879 74.1627 13.2159 74.1627 13.7984C74.2536 13.3797 74.6359 13.0247 75.3096 12.7334C76.0012 12.4604 77.0026 12.3238 78.3133 12.3238C81.9541 12.3238 83.7747 13.5709 83.7747 16.0649V21.4989C83.7747 22.2816 83.6563 22.9643 83.4197 23.5469C83.2012 24.1295 82.9098 24.5845 82.5459 24.9122C82.2182 25.2218 81.7629 25.4675 81.1805 25.6495C80.6161 25.8315 80.0518 25.9499 79.4875 26.0045C78.9777 26.0591 78.3588 26.0864 77.6307 26.0864ZM77.6853 24.4753C78.6318 24.4753 79.351 24.4115 79.8425 24.2842C80.3522 24.1385 80.7163 23.8837 80.9348 23.5196C81.1532 23.1554 81.2625 22.6003 81.2625 21.8539V16.6656C81.2625 15.9192 81.1532 15.364 80.9348 14.9999C80.7163 14.6176 80.3522 14.3718 79.8425 14.2626C79.351 14.1352 78.6227 14.0715 77.658 14.0715C76.7658 14.0715 76.0742 14.1443 75.5827 14.2899C75.0911 14.4356 74.7362 14.6995 74.5177 15.0818C74.2992 15.4459 74.19 15.9738 74.19 16.6656V21.8539C74.19 22.6003 74.2901 23.1554 74.4904 23.5196C74.7089 23.8837 75.0638 24.1385 75.5554 24.2842C76.0469 24.4115 76.7569 24.4753 77.6853 24.4753Z" fill="white"/>
<path d="M93.1168 26.0863C89.0754 26.0863 87.0547 24.7391 87.0547 22.0449V16.8293C87.0547 15.2273 87.5097 14.0805 88.42 13.3887C89.3484 12.6787 90.8411 12.3237 92.8983 12.3237C94.846 12.3237 96.2479 12.6605 97.1035 13.3341C97.9774 14.0077 98.4143 15.1727 98.4143 16.8293V19.7511H89.5396V21.7445C89.5396 22.6548 89.8581 23.3102 90.4953 23.7106C91.1323 24.111 92.1154 24.3114 93.4444 24.3114C94.7006 24.3114 96.1841 24.0929 97.8954 23.656V25.5402C96.2206 25.9043 94.6276 26.0863 93.1168 26.0863ZM95.9567 18.14V16.0647C95.9567 15.2638 95.7109 14.7176 95.2194 14.4263C94.746 14.1169 93.9268 13.9621 92.7618 13.9621C91.633 13.9621 90.8138 14.1169 90.3042 14.4263C89.7943 14.7176 89.5396 15.2638 89.5396 16.0647V18.14H95.9567Z" fill="white"/>
<path d="M102.324 8.09131H109.369C114.339 8.09131 116.824 9.78432 116.824 13.1703V21.0074C116.824 24.2114 114.348 25.8133 109.397 25.8133H102.324V8.09131ZM109.206 24.0111C112.592 24.0111 114.285 22.9916 114.285 20.9527V13.143C114.285 12.4877 114.148 11.9325 113.875 11.4773C113.602 11.0222 113.22 10.6854 112.728 10.467C112.237 10.2668 111.727 10.1302 111.199 10.0574C110.671 9.96638 110.052 9.92086 109.342 9.92086H104.973V24.0111H109.206Z" fill="white"/>
<path d="M120.693 7.81836H123.151V10.3852H120.693V7.81836ZM120.693 12.597H123.151V25.8135H120.693V12.597Z" fill="white"/>
<path d="M132.411 31.8207C130.608 31.8207 129.088 31.7206 127.85 31.5203V29.7727C130.035 30.0276 131.628 30.155 132.629 30.155C133.885 30.155 134.795 29.9547 135.36 29.5542C135.942 29.1538 136.233 28.4893 136.233 27.5609V24.3933C136.197 24.9759 135.797 25.4036 135.032 25.6767C134.286 25.9498 133.339 26.0863 132.192 26.0863C130.827 26.0863 129.762 25.9589 128.997 25.704C128.251 25.4491 127.714 25.0305 127.386 24.4479C127.077 23.8653 126.922 23.0734 126.922 22.0722V16.6928C126.922 15.1272 127.34 14.0077 128.178 13.3341C129.033 12.6605 130.426 12.3237 132.356 12.3237C134.65 12.3237 135.997 12.8426 136.397 13.8802V12.5968H138.691V27.0693C138.691 28.289 138.463 29.2447 138.008 29.9365C137.553 30.6284 136.87 31.1107 135.96 31.3838C135.05 31.675 133.867 31.8207 132.411 31.8207ZM132.711 24.4479C134.003 24.4479 134.914 24.2932 135.442 23.9837C135.969 23.6741 136.233 23.0917 136.233 22.2361V16.2559C136.233 15.6551 136.133 15.2 135.933 14.8906C135.751 14.5811 135.405 14.3626 134.895 14.2352C134.386 14.0896 133.639 14.0167 132.656 14.0167C131.728 14.0167 131.027 14.0805 130.554 14.2079C130.098 14.3353 129.78 14.5629 129.598 14.8906C129.434 15.2 129.352 15.6551 129.352 16.2559V22.2361C129.352 22.8549 129.443 23.3191 129.625 23.6287C129.807 23.9382 130.135 24.1567 130.608 24.2841C131.081 24.3933 131.782 24.4479 132.711 24.4479Z" fill="white"/>
<path d="M142.961 7.81836H145.419V10.3852H142.961V7.81836ZM142.961 12.597H145.419V25.8135H142.961V12.597Z" fill="white"/>
<path d="M155.222 26.0864C154.094 26.0864 153.211 25.968 152.574 25.7314C151.936 25.4765 151.472 25.0579 151.181 24.4753C150.908 23.8746 150.771 23.0372 150.771 21.9631V14.208H147.822V12.5969H150.771V8.50092H153.256V12.5969H157.98V14.208H153.256V22.0996C153.256 22.755 153.329 23.2465 153.475 23.5742C153.639 23.9019 153.912 24.1385 154.294 24.2842C154.694 24.4115 155.268 24.4753 156.014 24.4753C156.251 24.4753 156.906 24.4026 157.98 24.2569V25.868C157.052 26.0137 156.132 26.0864 155.222 26.0864Z" fill="white"/>
<path d="M164.734 26.0863C163.478 26.0863 162.503 25.9679 161.812 25.7313C161.138 25.4947 160.647 25.0759 160.337 24.4752C160.046 23.8744 159.9 23.0098 159.9 21.8811C159.9 20.8798 160.037 20.1061 160.31 19.56C160.601 18.9957 161.084 18.5952 161.757 18.3585C162.449 18.1219 163.423 18.0035 164.679 18.0035H168.639V15.9009C168.639 15.4094 168.538 15.0362 168.338 14.7813C168.156 14.5083 167.837 14.3171 167.382 14.2079C166.946 14.0987 166.299 14.0441 165.444 14.0441C164.078 14.0441 162.567 14.1533 160.911 14.3717V12.5695C162.713 12.4056 164.342 12.3237 165.799 12.3237C167.328 12.3237 168.456 12.4421 169.185 12.6787C169.913 12.8972 170.413 13.2886 170.687 13.8529C170.96 14.4173 171.096 15.2911 171.096 16.4743V25.8132H168.72V24.5571C168.52 25.5766 167.191 26.0863 164.734 26.0863ZM165.143 24.4752C166.035 24.4752 166.791 24.4114 167.41 24.2841C168.229 24.1202 168.639 23.7379 168.639 23.1372V19.5327H164.843C164.06 19.5327 163.496 19.5964 163.15 19.7238C162.804 19.8331 162.576 20.0515 162.467 20.3792C162.358 20.7069 162.303 21.2348 162.303 21.963C162.303 22.6183 162.367 23.128 162.495 23.4922C162.622 23.838 162.85 24.0929 163.177 24.2567C163.505 24.4025 163.996 24.4752 164.652 24.4752H165.143Z" fill="white"/>
<path d="M175.359 6.69873H177.817V25.8134H175.359V6.69873Z" fill="white"/>
</g>
<defs>
<linearGradient id="paint0_linear_106_5022" x1="0.000299456" y1="-6.53075e-09" x2="23.8936" y2="32" gradientUnits="userSpaceOnUse">
<stop offset="0.0625" stop-color="white"/>
<stop offset="1" stop-color="white"/>
</linearGradient>
<linearGradient id="paint1_linear_106_5022" x1="-0.000425626" y1="0.000120575" x2="23.8929" y2="32.0001" gradientUnits="userSpaceOnUse">
<stop offset="0.0625" stop-color="white"/>
<stop offset="1" stop-color="white"/>
</linearGradient>
<linearGradient id="paint2_linear_106_5022" x1="2.64767e-05" y1="1.11291e-05" x2="23.8934" y2="32" gradientUnits="userSpaceOnUse">
<stop offset="0.0625" stop-color="white"/>
<stop offset="1" stop-color="white"/>
</linearGradient>
<linearGradient id="paint3_linear_106_5022" x1="0.00140154" y1="-0.000118632" x2="23.8947" y2="31.9999" gradientUnits="userSpaceOnUse">
<stop offset="0.0625" stop-color="white"/>
<stop offset="1" stop-color="white"/>
</linearGradient>
<linearGradient id="paint4_linear_106_5022" x1="5.02525e-08" y1="6.2701e-06" x2="23.8933" y2="32" gradientUnits="userSpaceOnUse">
<stop offset="0.0625" stop-color="white"/>
<stop offset="1" stop-color="white"/>
</linearGradient>
<linearGradient id="paint5_linear_106_5022" x1="-0.000451988" y1="1.21673e-05" x2="23.8929" y2="32" gradientUnits="userSpaceOnUse">
<stop offset="0.0625" stop-color="white"/>
<stop offset="1" stop-color="white"/>
</linearGradient>
<linearGradient id="paint6_linear_106_5022" x1="-0.000501936" y1="-5.04447e-05" x2="23.8928" y2="31.9999" gradientUnits="userSpaceOnUse">
<stop offset="0.0625" stop-color="white"/>
<stop offset="1" stop-color="white"/>
</linearGradient>
<linearGradient id="paint7_linear_106_5022" x1="-0.000374536" y1="1.18307e-05" x2="23.893" y2="32" gradientUnits="userSpaceOnUse">
<stop offset="0.0625" stop-color="white"/>
<stop offset="1" stop-color="white"/>
</linearGradient>
<linearGradient id="paint8_linear_106_5022" x1="0.0010581" y1="3.02834e-05" x2="23.8944" y2="32" gradientUnits="userSpaceOnUse">
<stop offset="0.0625" stop-color="white"/>
<stop offset="1" stop-color="white"/>
</linearGradient>
<linearGradient id="paint9_linear_106_5022" x1="-9.90897e-06" y1="1.11041e-05" x2="23.8933" y2="32" gradientUnits="userSpaceOnUse">
<stop offset="0.0625" stop-color="white"/>
<stop offset="1" stop-color="white"/>
</linearGradient>
<linearGradient id="paint10_linear_106_5022" x1="0.000417256" y1="-4.05961e-05" x2="23.8938" y2="32" gradientUnits="userSpaceOnUse">
<stop offset="0.0625" stop-color="white"/>
<stop offset="1" stop-color="white"/>
</linearGradient>
<linearGradient id="paint11_linear_106_5022" x1="-1.0189e-05" y1="4.70774e-05" x2="23.8933" y2="32.0001" gradientUnits="userSpaceOnUse">
<stop offset="0.0625" stop-color="white"/>
<stop offset="1" stop-color="white"/>
</linearGradient>
<linearGradient id="paint12_linear_106_5022" x1="5.3959e-05" y1="-8.27158e-05" x2="23.8934" y2="31.9999" gradientUnits="userSpaceOnUse">
<stop offset="0.0625" stop-color="white"/>
<stop offset="1" stop-color="white"/>
</linearGradient>
<linearGradient id="paint13_linear_106_5022" x1="0.000450422" y1="-2.91456e-05" x2="23.8938" y2="32" gradientUnits="userSpaceOnUse">
<stop offset="0.0625" stop-color="white"/>
<stop offset="1" stop-color="white"/>
</linearGradient>
<linearGradient id="paint14_linear_106_5022" x1="-0.00106466" y1="-4.52834e-06" x2="23.8923" y2="32" gradientUnits="userSpaceOnUse">
<stop offset="0.0625" stop-color="white"/>
<stop offset="1" stop-color="white"/>
</linearGradient>
<linearGradient id="paint15_linear_106_5022" x1="0.000970127" y1="-0.000129362" x2="23.8943" y2="31.9999" gradientUnits="userSpaceOnUse">
<stop offset="0.0625" stop-color="white"/>
<stop offset="1" stop-color="white"/>
</linearGradient>
<linearGradient id="paint16_linear_106_5022" x1="0.000440257" y1="-0.000106792" x2="23.8938" y2="31.9999" gradientUnits="userSpaceOnUse">
<stop offset="0.0625" stop-color="white"/>
<stop offset="1" stop-color="white"/>
</linearGradient>
<linearGradient id="paint17_linear_106_5022" x1="0.000504069" y1="-7.86848e-05" x2="23.8938" y2="31.9999" gradientUnits="userSpaceOnUse">
<stop offset="0.0625" stop-color="white"/>
<stop offset="1" stop-color="white"/>
</linearGradient>
<linearGradient id="paint18_linear_106_5022" x1="-0.000426046" y1="-0.000134848" x2="23.8929" y2="31.9999" gradientUnits="userSpaceOnUse">
<stop offset="0.0625" stop-color="white"/>
<stop offset="1" stop-color="white"/>
</linearGradient>
<linearGradient id="paint19_linear_106_5022" x1="-0.00097781" y1="-4.46277e-05" x2="23.8923" y2="31.9999" gradientUnits="userSpaceOnUse">
<stop offset="0.0625" stop-color="white"/>
<stop offset="1" stop-color="white"/>
</linearGradient>
<linearGradient id="paint20_linear_106_5022" x1="0.00121962" y1="-9.22896e-06" x2="23.8945" y2="32" gradientUnits="userSpaceOnUse">
<stop offset="0.0625" stop-color="white"/>
<stop offset="1" stop-color="white"/>
</linearGradient>
<linearGradient id="paint21_linear_106_5022" x1="0.00019057" y1="3.14129e-05" x2="23.8935" y2="32" gradientUnits="userSpaceOnUse">
<stop offset="0.0625" stop-color="white"/>
<stop offset="1" stop-color="white"/>
</linearGradient>
<linearGradient id="paint22_linear_106_5022" x1="0.00116106" y1="0.000103013" x2="23.8945" y2="32.0001" gradientUnits="userSpaceOnUse">
<stop offset="0.0625" stop-color="white"/>
<stop offset="1" stop-color="white"/>
</linearGradient>
<linearGradient id="paint23_linear_106_5022" x1="0.000111484" y1="0.000102924" x2="23.8934" y2="32.0001" gradientUnits="userSpaceOnUse">
<stop offset="0.0625" stop-color="white"/>
<stop offset="1" stop-color="white"/>
</linearGradient>
<linearGradient id="paint24_linear_106_5022" x1="0.00114443" y1="2.84957e-05" x2="23.8945" y2="32" gradientUnits="userSpaceOnUse">
<stop offset="0.0625" stop-color="white"/>
<stop offset="1" stop-color="white"/>
</linearGradient>
<linearGradient id="paint25_linear_106_5022" x1="-0.000978276" y1="3.46645e-05" x2="23.8924" y2="32" gradientUnits="userSpaceOnUse">
<stop offset="0.0625" stop-color="white"/>
<stop offset="1" stop-color="white"/>
</linearGradient>
<linearGradient id="paint26_linear_106_5022" x1="-0.000118845" y1="-9.17716e-05" x2="23.8932" y2="31.9999" gradientUnits="userSpaceOnUse">
<stop offset="0.0625" stop-color="white"/>
<stop offset="1" stop-color="white"/>
</linearGradient>
<linearGradient id="paint27_linear_106_5022" x1="0.000400169" y1="4.16836e-05" x2="23.8937" y2="32" gradientUnits="userSpaceOnUse">
<stop offset="0.0625" stop-color="white"/>
<stop offset="1" stop-color="white"/>
</linearGradient>
<linearGradient id="paint28_linear_106_5022" x1="0.000108064" y1="1.09757e-05" x2="23.8934" y2="32" gradientUnits="userSpaceOnUse">
<stop offset="0.0625" stop-color="white"/>
<stop offset="1" stop-color="white"/>
</linearGradient>
<linearGradient id="paint29_linear_106_5022" x1="-6.64265e-05" y1="-3.68956e-06" x2="23.8932" y2="32" gradientUnits="userSpaceOnUse">
<stop offset="0.0625" stop-color="white"/>
<stop offset="1" stop-color="white"/>
</linearGradient>
<linearGradient id="paint30_linear_106_5022" x1="0.000108291" y1="-1.96505e-05" x2="23.8935" y2="32" gradientUnits="userSpaceOnUse">
<stop offset="0.0625" stop-color="white"/>
<stop offset="1" stop-color="white"/>
</linearGradient>
<linearGradient id="paint31_linear_106_5022" x1="-6.63142e-05" y1="4.85473e-05" x2="23.8932" y2="32" gradientUnits="userSpaceOnUse">
<stop offset="0.0625" stop-color="white"/>
<stop offset="1" stop-color="white"/>
</linearGradient>
<linearGradient id="paint32_linear_106_5022" x1="-0.00104825" y1="-6.57004e-05" x2="23.8923" y2="31.9999" gradientUnits="userSpaceOnUse">
<stop offset="0.0625" stop-color="white"/>
<stop offset="1" stop-color="white"/>
</linearGradient>
<linearGradient id="paint33_linear_106_5022" x1="-0.000418974" y1="-3.09777e-06" x2="23.8929" y2="32" gradientUnits="userSpaceOnUse">
<stop offset="0.0625" stop-color="white"/>
<stop offset="1" stop-color="white"/>
</linearGradient>
<linearGradient id="paint34_linear_106_5022" x1="0.000213682" y1="-1.08045e-05" x2="23.8935" y2="32" gradientUnits="userSpaceOnUse">
<stop offset="0.0625" stop-color="white"/>
<stop offset="1" stop-color="white"/>
</linearGradient>
<linearGradient id="paint35_linear_106_5022" x1="-0.0001125" y1="1.31179e-05" x2="23.8932" y2="32" gradientUnits="userSpaceOnUse">
<stop offset="0.0625" stop-color="white"/>
<stop offset="1" stop-color="white"/>
</linearGradient>
<linearGradient id="paint36_linear_106_5022" x1="-0.000113662" y1="3.10076e-06" x2="23.8932" y2="32" gradientUnits="userSpaceOnUse">
<stop offset="0.0625" stop-color="white"/>
<stop offset="1" stop-color="white"/>
</linearGradient>
<linearGradient id="paint37_linear_106_5022" x1="-0.00100765" y1="6.41037e-05" x2="23.8923" y2="32.0001" gradientUnits="userSpaceOnUse">
<stop offset="0.0625" stop-color="white"/>
<stop offset="1" stop-color="white"/>
</linearGradient>
<linearGradient id="paint38_linear_106_5022" x1="0.000930627" y1="1.94656e-05" x2="23.8943" y2="32" gradientUnits="userSpaceOnUse">
<stop offset="0.0625" stop-color="white"/>
<stop offset="1" stop-color="white"/>
</linearGradient>
<linearGradient id="paint39_linear_106_5022" x1="-0.000370515" y1="-5.84057e-06" x2="23.893" y2="32" gradientUnits="userSpaceOnUse">
<stop offset="0.0625" stop-color="white"/>
<stop offset="1" stop-color="white"/>
</linearGradient>
<linearGradient id="paint40_linear_106_5022" x1="-0.000890623" y1="-6.53203e-05" x2="23.8925" y2="31.9999" gradientUnits="userSpaceOnUse">
<stop offset="0.0625" stop-color="white"/>
<stop offset="1" stop-color="white"/>
</linearGradient>
<linearGradient id="paint41_linear_106_5022" x1="-0.000198677" y1="-4.83447e-05" x2="23.8932" y2="32" gradientUnits="userSpaceOnUse">
<stop offset="0.0625" stop-color="white"/>
<stop offset="1" stop-color="white"/>
</linearGradient>
<linearGradient id="paint42_linear_106_5022" x1="-0.000436052" y1="5.48696e-05" x2="23.8928" y2="32" gradientUnits="userSpaceOnUse">
<stop offset="0.0625" stop-color="white"/>
<stop offset="1" stop-color="white"/>
</linearGradient>
<linearGradient id="paint43_linear_106_5022" x1="0.000382931" y1="-9.89023e-05" x2="23.8937" y2="31.9999" gradientUnits="userSpaceOnUse">
<stop offset="0.0625" stop-color="white"/>
<stop offset="1" stop-color="white"/>
</linearGradient>
<linearGradient id="paint44_linear_106_5022" x1="0.000383288" y1="5.67395e-05" x2="23.8937" y2="32.0001" gradientUnits="userSpaceOnUse">
<stop offset="0.0625" stop-color="white"/>
<stop offset="1" stop-color="white"/>
</linearGradient>
<linearGradient id="paint45_linear_106_5022" x1="-0.000294798" y1="1.03339e-05" x2="23.893" y2="32" gradientUnits="userSpaceOnUse">
<stop offset="0.0625" stop-color="white"/>
<stop offset="1" stop-color="white"/>
</linearGradient>
<linearGradient id="paint46_linear_106_5022" x1="0.00133656" y1="9.27705e-05" x2="23.8947" y2="32.0001" gradientUnits="userSpaceOnUse">
<stop offset="0.0625" stop-color="white"/>
<stop offset="1" stop-color="white"/>
</linearGradient>
<linearGradient id="paint47_linear_106_5022" x1="0.00044871" y1="-2.30719e-05" x2="23.8938" y2="32" gradientUnits="userSpaceOnUse">
<stop offset="0.0625" stop-color="white"/>
<stop offset="1" stop-color="white"/>
</linearGradient>
<linearGradient id="paint48_linear_106_5022" x1="0.000459701" y1="-0.000119251" x2="23.8938" y2="31.9999" gradientUnits="userSpaceOnUse">
<stop offset="0.0625" stop-color="white"/>
<stop offset="1" stop-color="white"/>
</linearGradient>
<linearGradient id="paint49_linear_106_5022" x1="0.000351578" y1="4.14756e-05" x2="23.8937" y2="32" gradientUnits="userSpaceOnUse">
<stop offset="0.0625" stop-color="white"/>
<stop offset="1" stop-color="white"/>
</linearGradient>
<linearGradient id="paint50_linear_106_5022" x1="-0.000187739" y1="2.53297e-05" x2="23.8931" y2="32" gradientUnits="userSpaceOnUse">
<stop offset="0.0625" stop-color="white"/>
<stop offset="1" stop-color="white"/>
</linearGradient>
<linearGradient id="paint51_linear_106_5022" x1="-0.000216674" y1="1.29713e-05" x2="23.8931" y2="32" gradientUnits="userSpaceOnUse">
<stop offset="0.0625" stop-color="white"/>
<stop offset="1" stop-color="white"/>
</linearGradient>
<linearGradient id="paint52_linear_106_5022" x1="0.000560803" y1="-1.97021e-06" x2="23.8939" y2="32" gradientUnits="userSpaceOnUse">
<stop offset="0.0625" stop-color="white"/>
<stop offset="1" stop-color="white"/>
</linearGradient>
<linearGradient id="paint53_linear_106_5022" x1="0.00118563" y1="-2.32882e-06" x2="23.8945" y2="32" gradientUnits="userSpaceOnUse">
<stop offset="0.0625" stop-color="white"/>
<stop offset="1" stop-color="white"/>
</linearGradient>
<linearGradient id="paint54_linear_106_5022" x1="-0.000753894" y1="2.64264e-07" x2="23.8926" y2="32" gradientUnits="userSpaceOnUse">
<stop offset="0.0625" stop-color="white"/>
<stop offset="1" stop-color="white"/>
</linearGradient>
<linearGradient id="paint55_linear_106_5022" x1="0.000597653" y1="-0.000101922" x2="23.8939" y2="31.9999" gradientUnits="userSpaceOnUse">
<stop offset="0.0625" stop-color="white"/>
<stop offset="1" stop-color="white"/>
</linearGradient>
<linearGradient id="paint56_linear_106_5022" x1="-0.000997331" y1="-1.76547e-05" x2="23.8923" y2="32" gradientUnits="userSpaceOnUse">
<stop offset="0.0625" stop-color="white"/>
<stop offset="1" stop-color="white"/>
</linearGradient>
<clipPath id="clip0_106_5022">
<rect width="178" height="32" fill="white"/>
</clipPath>
</defs>
</svg>
