<svg width="32" height="48" viewBox="0 0 32 48" fill="none" xmlns="http://www.w3.org/2000/svg">
<path d="M0 0H22C27.5228 0 32 4.47715 32 10V38C32 43.5228 27.5228 48 22 48H0V0Z" fill="#0466D1"/>
<path d="M12.7676 30.0667C12.6009 29.9 12.5176 29.7027 12.5176 29.4747C12.5176 29.2467 12.6009 29.0496 12.7676 28.8834L17.6509 24L12.7509 19.1C12.5954 18.9445 12.5176 18.75 12.5176 18.5167C12.5176 18.2834 12.6009 18.0834 12.7676 17.9167C12.9342 17.75 13.1316 17.6667 13.3596 17.6667C13.5876 17.6667 13.7847 17.75 13.9509 17.9167L19.5509 23.5334C19.6176 23.6 19.6649 23.6722 19.6929 23.75C19.7209 23.8278 19.7347 23.9111 19.7342 24C19.7342 24.0889 19.7202 24.1722 19.6922 24.25C19.6642 24.3278 19.6171 24.4 19.5509 24.4667L13.9342 30.0834C13.7787 30.2389 13.5869 30.3167 13.3589 30.3167C13.1309 30.3167 12.9338 30.2334 12.7676 30.0667Z" fill="white"/>
</svg>
