<svg width="16" height="16" viewBox="0 0 16 16" fill="none" xmlns="http://www.w3.org/2000/svg">
<path d="M2.44231 13.7543C1.67822 13.0163 1.06877 12.1336 0.649494 11.1575C0.230222 10.1815 0.00953258 9.13175 0.000302054 8.06952C-0.00892848 7.00728 0.193485 5.95384 0.595732 4.97067C0.997979 3.9875 1.592 3.09429 2.34315 2.34315C3.09429 1.592 3.9875 0.997979 4.97067 0.595732C5.95384 0.193485 7.00728 -0.00892848 8.06952 0.000302054C9.13175 0.00953258 10.1815 0.230222 11.1575 0.649494C12.1336 1.06877 13.0163 1.67822 13.7543 2.44231C15.2116 3.95112 16.0179 5.97194 15.9997 8.06952C15.9815 10.1671 15.1401 12.1736 13.6569 13.6569C12.1736 15.1401 10.1671 15.9815 8.06952 15.9997C5.97194 16.0179 3.95112 15.2116 2.44231 13.7543ZM12.6263 12.6263C13.8272 11.4254 14.5019 9.79663 14.5019 8.09831C14.5019 6.39998 13.8272 4.77121 12.6263 3.57031C11.4254 2.36941 9.79663 1.69475 8.09831 1.69475C6.39998 1.69475 4.77121 2.36941 3.57031 3.57031C2.36941 4.77121 1.69475 6.39998 1.69475 8.09831C1.69475 9.79663 2.36941 11.4254 3.57031 12.6263C4.77121 13.8272 6.39998 14.5019 8.09831 14.5019C9.79663 14.5019 11.4254 13.8272 12.6263 12.6263ZM7.29831 4.09831H8.89831V8.89831H7.29831V4.09831ZM7.29831 10.4983H8.89831V12.0983H7.29831V10.4983Z" fill="#D9C302"/>
</svg>
