<svg width="16" height="15" viewBox="0 0 16 15" fill="none" xmlns="http://www.w3.org/2000/svg">
<path d="M7.9992 0.148132C3.92513 0.148132 0.591797 3.48147 0.591797 7.55554C0.591797 11.6296 3.92513 14.9629 7.9992 14.9629C12.0733 14.9629 15.4066 11.6296 15.4066 7.55554C15.4066 3.48147 12.0733 0.148132 7.9992 0.148132ZM7.9992 13.4815C4.73254 13.4815 2.07328 10.8222 2.07328 7.55554C2.07328 4.28887 4.73254 1.62961 7.9992 1.62961C11.2659 1.62961 13.9251 4.28887 13.9251 7.55554C13.9251 10.8222 11.2659 13.4815 7.9992 13.4815ZM11.3992 4.28147L6.51772 9.16295L4.5992 7.25184L3.55476 8.29628L6.51772 11.2592L12.4436 5.33332L11.3992 4.28147Z" fill="#00D16D"/>
</svg>
